<svg xmlns="http://www.w3.org/2000/svg" viewBox="0 0 934.85 537.9"><defs><style>.cls-1{fill:#fff;}.cls-2{font-size:151.22px;font-family:TsukuAOldMinPr6N-L-90ms-RKSJ-H, FOT-TsukuAOldMin Pr6N;}</style></defs><g id="レイヤー_2" data-name="レイヤー 2"><g id="レイヤー_1-2" data-name="レイヤー 1"><path class="cls-1" d="M45.15,282.79c49-100.94,182.33-299,328.7-281.74,96.66,11.38,91.53,104,234.78,178.44C773.16,265,896.08,203.24,927.94,268.71c33.74,69.35-60.37,228.67-187.83,263C595.58,570.54,533.6,414.89,317.5,414.27c-163.85-.47-264.37,88.62-305.22,42.26C-20.93,418.85,21.11,332.29,45.15,282.79Z"/><text class="cls-2" transform="matrix(0.87, -0.5, 0.5, 0.87, 146.05, 349.59)">作</text><text class="cls-2" transform="translate(266.47 272.45) rotate(-2.5)">品</text><text class="cls-2" transform="translate(405.3 264.18) rotate(36.4)">を</text><text class="cls-2" transform="matrix(0.8, 0.6, -0.6, 0.8, 521.77, 367.97)">見</text><text class="cls-2" transform="matrix(0.96, -0.28, 0.28, 0.96, 713.97, 470.51)">る</text></g></g></svg>