<svg width="378" height="522" viewBox="0 0 378 522" fill="none" xmlns="http://www.w3.org/2000/svg">
<path d="M208.545 122.932C208.734 120.431 210.676 105.451 211.248 101.796C211.604 99.5234 211.817 99.4556 213.324 98.8818C213.963 98.6783 215.309 98.4843 215.464 97.4963C215.774 95.5204 210.545 92.0697 209.557 91.915C209.359 91.8841 209.161 91.8531 208.948 91.921C208.522 92.0567 207.775 92.9518 207.287 93.4827C206.928 93.8314 206.388 94.0504 205.894 93.9731L184.752 90.6618C188.788 88.1562 196.75 81.913 197.976 81.194C200.2 79.9227 201.11 80.5714 202.222 79.9358C202.45 79.7692 203.766 79.7727 203.905 78.8836C204.168 77.204 199.229 73.1916 198.34 73.0523C198.143 73.0213 197.831 73.0737 197.503 73.2249C197.062 73.4594 196.901 73.8391 196.231 74.2402C195.561 74.6414 195.447 74.7247 194.557 74.5854L174.403 71.4289L178.422 67.0985C179.283 66.1201 179.465 66.2498 181.176 66.3153C182.886 66.3807 183.686 65.7975 183.81 65.0071C184.197 62.5372 177.569 58.9687 177.174 58.9069C176.878 58.8604 176.831 59.1568 176.556 59.6199C176.105 60.5614 175.058 62.7254 174.18 63.8026C162.736 78.7113 145.141 93.4665 138.069 96.6102C137.103 96.9649 136.729 97.4125 136.698 97.61C136.667 97.8076 136.849 97.9374 137.047 97.9683C137.837 98.0921 143.611 96.7696 156.555 87.1566C156.267 89.642 155.963 92.2261 155.623 94.3996L155.267 96.6719C153.615 105.928 151.313 119.333 149.852 128.012C147.98 139.966 157.168 141.405 176.927 144.499C203.404 148.646 211.608 148.615 216.398 145.823C217.624 145.104 218.143 144.375 218.267 143.585C218.39 142.795 217.921 141.911 217.292 141.408C216.116 140.515 217.155 127.418 216.562 127.325C216.463 127.31 216.448 127.409 216.287 127.788C213.765 135.491 211.153 142.471 207.244 142.871C202.826 143.292 189.874 141.972 178.117 140.131C155.987 136.665 153.61 135.685 154.697 127.454C155.192 124.293 156.167 118.069 157.24 111.86L204.07 119.195L203.482 122.949C203.265 124.332 204.16 125.079 205.148 125.234C206.729 125.482 208.282 124.612 208.514 123.13L208.545 122.932ZM204.54 116.839L183.397 113.528C183.722 111.453 184.258 107.387 184.83 103.731C185.418 99.9772 186.043 96.6336 186.152 95.942C186.498 94.3768 186.535 94.7874 187.943 94.1982C188.27 94.047 188.499 93.8804 188.629 93.6983L206.412 96.4834C207.103 96.5917 207.375 97.444 207.375 97.444C207.288 98.645 206.474 104.489 205.545 110.417L204.54 116.839ZM182.009 92.6616C181.953 93.665 181.706 95.2457 181.675 95.4433C181.164 98.7036 179.441 109.062 178.754 112.8L157.612 109.489C158.84 102.293 160.09 95.6054 160.597 93.6604C161.259 90.7275 161.607 91.0858 163.327 90.4442L164.523 89.9228L182.009 92.6616ZM193.859 77.1077C194.55 77.216 194.717 77.4446 194.686 77.6422C194.64 77.9385 194.396 78.204 194.266 78.3861C193.861 79.0312 186.862 86.235 183.566 90.4761L164.993 87.5672C164.743 87.2244 164.128 86.6221 160.471 84.126C164.303 80.9812 168.281 77.5555 172.124 73.7036L193.859 77.1077Z" fill="black"/>
<path d="M165.448 178.822C166.075 178.643 166.692 178.416 167.329 178.287C177.051 176.416 183.167 182.164 184.618 189.319C185.802 195.15 184.709 204.096 171.588 210.84C170.394 211.491 169.689 212.042 169.739 212.287C169.759 212.385 170.024 212.433 170.465 212.344C173.895 211.647 190.387 204.168 187.314 189.027C185.703 181.088 178.605 174.519 167.531 176.766C154.398 179.431 150.317 192.504 151.818 199.904C152.176 201.668 152.838 203.166 153.84 204.085C156.544 206.597 157.847 209.496 160.101 209.039C163.923 208.263 170.929 196.28 168.563 184.618C167.936 181.531 166.812 179.259 165.448 178.822ZM162.637 180.055C163.195 179.789 163.567 179.612 163.959 179.532C165.037 179.313 166.068 179.869 166.844 183.691C168.813 193.394 162.923 204.844 159.934 205.45C157.778 205.888 154.651 202.798 153.815 198.682C152.513 192.263 156.028 183.692 162.637 180.055Z" fill="black"/>
<path d="M223.466 236.664C223.01 235.331 219.912 230.61 215.962 230.172C211.191 229.642 208.102 235.713 206.429 242.621C199.862 248.079 195.075 256.527 193.668 264.445C193.394 266.226 192.914 267.154 192.094 267.063C191.423 266.988 186.959 264.38 187.72 257.522C187.919 255.733 188.424 253.902 188.938 251.997C189.865 248.403 190.743 245.934 191.008 243.549C191.488 239.226 189.061 237.296 187.57 237.131C186.452 237.006 184.862 237.735 184.804 238.257C184.762 238.63 185.491 238.862 186.112 239.383C187.164 240.104 187.214 243.052 186.867 246.183C186.668 247.972 186.312 249.819 185.981 251.443C185.691 252.693 185.558 253.886 185.426 255.079C183.762 270.061 194.737 273.167 194.96 273.191C195.482 273.249 197.08 273.125 197.205 272.007C197.271 271.411 196.964 270.773 196.724 270.218C196.169 269.1 196.318 267.758 196.649 264.776C197.452 257.546 200.856 250.68 205.783 245.718C205.56 247.052 205.328 248.46 205.171 249.876C204.476 256.137 204.278 270.151 212.801 275.625C210.382 279.054 207.335 282.036 203.69 284.273C201.429 285.606 200.361 286.393 200.328 286.691C200.32 286.766 200.394 286.774 200.469 286.782C201.214 286.865 209.107 284.421 215.368 276.967C216.453 277.389 217.555 277.663 218.747 277.795C228.811 278.912 240.861 270.29 242.227 257.99C243.717 244.573 232.56 237.674 223.988 236.722L223.466 236.664ZM224.095 238.47C230.324 239.463 239.857 244.672 238.524 256.674C237.423 266.588 228.761 275.285 219.517 274.258C218.847 274.184 218.184 274.035 217.596 273.894C221.853 267.5 223.981 259.888 224.734 253.105C225.396 247.141 224.998 241.891 224.095 238.47ZM208.79 243.109C212.417 240.342 216.393 238.52 220.642 238.313C221.536 241.129 221.81 246.14 221.164 251.954C220.436 258.513 218.457 266.142 214.714 272.668C205.512 267.194 206.554 252.369 207.001 248.344C207.167 246.853 207.407 245.37 207.713 243.97L208.79 243.109ZM219.921 236.648C215.805 237.021 211.929 238.628 208.492 241.038C208.616 240.599 211.522 232.093 215.324 232.515C216.815 232.681 218.314 234.13 219.921 236.648Z" fill="black"/>
<path d="M222.972 309.299C222.774 310.023 221.998 310.589 220.591 310.905C218.762 311.34 216.736 311.643 214.961 312.17C212.159 313.039 209.12 314.777 208.056 318.684C207.957 319.046 207.951 319.355 207.852 319.717C207.623 321.131 207.419 322.164 207.163 323.105C206.946 323.901 206.676 324.605 206.348 325.526C204.738 329.44 202.424 334.795 201.34 338.775C198.915 347.676 203.35 350.516 204.218 350.753C205.014 350.97 206.04 350.627 207.573 349.568C212.137 346.225 213.846 344.514 217.937 342.908C219.864 342.111 221.811 342.097 223.548 342.57C228.252 343.851 231.325 348.264 230.103 352.751C228.96 356.948 222.851 364.534 205.249 364.093C202.703 364.021 201.591 364.107 201.552 364.252C201.532 364.324 201.749 364.383 202.111 364.482C214.124 367.754 231.074 364.597 234.03 353.743C235.942 346.723 229.211 341.47 225.376 340.425C222.771 339.716 219.712 339.815 217.2 340.763C213.076 342.205 210.511 343.916 208.459 344.601C207.104 345.009 206.098 345.279 205.374 345.082C204.433 344.826 202.723 343.972 204.418 337.748C205.147 335.071 206.396 331.913 207.895 328.979C209.453 325.827 210.34 324.281 210.774 322.689C211.03 321.749 211.142 320.768 211.187 319.459C211.233 319.005 211.318 318.407 211.476 317.828C212.974 312.328 217.664 313.373 219.546 313.885C221.066 314.299 222.691 314.897 223.533 315.515C224.178 316.002 224.875 316.58 225.671 316.797C226.901 317.132 228.526 316.02 228.979 314.356C230.24 309.724 222.575 303.905 222.213 303.807C221.996 303.748 221.884 303.873 221.865 303.945C221.786 304.235 222.062 304.932 222.095 305.096C222.28 305.846 223.228 307.503 223.031 309.082L222.972 309.299Z" fill="black"/>
<path d="M186.328 420.675C184.855 420.973 180.056 421.575 175.549 422.721C161.812 426.217 163.462 433.613 163.721 434.631C164.83 438.992 170.671 443.697 180.556 441.182C187.098 439.517 188.018 437.658 187.722 436.495C187.463 435.477 186.132 434.81 184.678 435.18C184.388 435.254 184.115 435.401 183.77 435.566C182.754 436.134 180.685 437.125 178.359 437.717C170.654 439.677 166.727 435.801 166.172 433.62C165.802 432.167 166.289 426.78 174.066 424.801C179.227 423.488 186.121 423.514 187.453 424.491C188.238 425.142 188.785 425.467 189.585 425.264C191.111 424.875 193.158 422.884 192.233 419.25C191.882 417.869 191.149 416.508 189.815 415.222C187.149 412.65 184.81 410.149 182.689 407.594C186.789 404.848 190.25 401.723 189.788 399.906C189.603 399.179 188.655 398.801 187.42 399.115C187.347 399.134 185.273 399.197 182.397 398.536C180.922 398.215 179.976 398.146 179.685 398.22C179.612 398.238 179.54 398.257 179.558 398.33C179.595 398.475 180.161 398.873 181.272 399.286C183.422 400.132 184.099 400.966 184.265 401.62C184.413 402.202 184.051 402.604 184.051 402.604C183.418 403.461 182.257 404.376 180.879 405.345C178.886 402.989 176.966 400.614 174.918 398.04C176.097 397.198 179.761 394.563 179.298 392.746C179.206 392.383 178.656 391.439 177.711 391.68C176.984 391.865 175.77 392.87 174.648 394.239C174.231 394.732 173.67 395.262 173.017 395.738C163.327 384.118 160.9 382.182 157.12 383.144C156.539 383.292 153.815 384.449 154.148 385.757C154.222 386.048 154.35 386.248 154.66 386.246C155.405 386.134 156.566 385.529 159.849 387.48C164.317 390.135 168.005 393.376 171.294 396.873C170.115 397.714 168.752 398.138 168.098 398.305C164.1 399.322 160.128 397.702 157.652 397.093C157.324 397.022 156.559 396.752 156.195 396.845C156.05 396.882 155.923 396.991 155.96 397.137C156.016 397.355 159.697 403.306 168.782 400.994C170.236 400.624 171.217 400.22 173.249 399.084C175.333 401.494 177.29 404.014 179.156 406.481C175.346 408.843 172.441 410.201 168.952 411.089C165.027 412.088 161.479 411.83 157.286 409.646C156.666 409.34 156.247 409.214 156.029 409.27C155.811 409.325 155.775 409.489 155.849 409.78C155.849 409.78 158.681 416.953 167.984 414.586C174.381 412.958 180.313 409.204 180.912 408.82C182.906 411.485 184.881 414.078 186.965 416.489C187.532 417.196 187.935 417.867 188.083 418.449C188.342 419.466 187.927 420.268 186.473 420.638L186.328 420.675ZM192.219 385.434C193.164 385.194 193.76 384.191 193.483 383.101C192.576 379.539 186.52 379.764 182.886 380.689C182.304 380.837 180.851 381.207 180.925 381.498C180.962 381.643 181.69 381.767 182.181 381.875C184.475 382.374 187.48 383.235 190.089 384.97C190.91 385.458 191.638 385.582 192.219 385.434ZM185.367 391.047C186.312 390.807 186.889 389.731 186.612 388.641C185.779 385.37 179.812 385.031 175.814 386.049C174.942 386.271 174.161 386.547 174.216 386.765C174.253 386.91 174.909 387.053 175.4 387.16C177.64 387.751 180.664 388.684 183.218 390.511C183.984 391.089 184.713 391.214 185.367 391.047Z" fill="black"/>
</svg>
