<svg width="1069" height="772" viewBox="0 0 1069 772" fill="none" xmlns="http://www.w3.org/2000/svg">
<path d="M290.762 407.016C291.266 399.81 296.611 356.636 298.199 346.1C299.187 339.55 299.8 339.351 304.13 337.674C305.968 337.077 309.841 336.496 310.271 333.648C311.13 327.953 296.014 318.101 293.166 317.671C292.596 317.585 292.027 317.5 291.414 317.698C290.189 318.096 288.051 320.686 286.654 322.223C285.628 323.234 284.076 323.873 282.652 323.659L221.709 314.469C233.292 307.187 256.119 289.076 259.638 286.985C266.021 283.288 268.654 285.141 271.845 283.292C272.501 282.808 276.289 282.797 276.675 280.234C277.405 275.393 263.117 263.918 260.554 263.532C259.984 263.446 259.087 263.602 258.146 264.042C256.878 264.725 256.422 265.821 254.499 266.987C252.575 268.154 252.247 268.396 249.684 268.009L191.589 259.249L203.091 246.712C205.557 243.88 206.083 244.251 211.011 244.411C215.938 244.571 218.232 242.879 218.575 240.6C219.649 233.481 200.503 223.313 199.364 223.141C198.509 223.012 198.381 223.866 197.596 225.204C196.313 227.923 193.332 234.173 190.823 237.289C158.107 280.414 107.677 323.197 87.3624 332.366C84.5846 333.404 83.5156 334.699 83.4297 335.268C83.3438 335.838 83.8704 336.209 84.44 336.294C86.7183 336.638 103.326 332.735 140.444 304.837C139.656 312 138.824 319.447 137.879 325.712L136.892 332.262C132.286 358.945 125.876 397.59 121.812 422.607C116.617 457.066 143.101 461.059 200.057 469.648C276.379 481.156 300.004 480.932 313.753 472.811C317.272 470.72 318.754 468.614 319.098 466.336C319.441 464.057 318.076 461.521 316.255 460.082C312.853 457.53 315.63 419.794 313.922 419.537C313.637 419.494 313.594 419.778 313.137 420.875C306 443.099 298.594 463.244 287.343 464.46C274.625 465.746 237.303 462.157 203.414 457.047C139.623 447.428 132.761 444.646 135.755 420.924C137.13 411.811 139.835 393.869 142.825 375.971L277.811 396.325L276.179 407.147C275.578 411.134 278.168 413.272 281.016 413.701C285.572 414.388 290.032 411.857 290.676 407.585L290.762 407.016ZM279.126 389.533L218.183 380.344C219.085 374.364 220.561 362.645 222.15 352.108C223.781 341.286 225.526 331.646 225.827 329.653C226.798 325.139 226.912 326.321 230.957 324.601C231.897 324.161 232.553 323.677 232.924 323.15L284.184 330.88C286.178 331.18 286.973 333.63 286.973 333.63C286.743 337.091 284.494 353.936 281.917 371.023L279.126 389.533ZM213.843 320.273C213.699 323.164 213.012 327.721 212.926 328.29C211.509 337.688 206.715 367.547 204.799 378.326L143.855 369.136C147.275 348.39 150.764 329.111 152.193 323.501C154.051 315.044 155.061 316.07 160.004 314.194L163.437 312.673L213.843 320.273ZM247.714 275.285C249.707 275.585 250.191 276.241 250.105 276.81C249.976 277.665 249.278 278.433 248.907 278.96C247.752 280.824 227.714 301.686 218.291 313.954L164.752 305.881C164.027 304.898 162.248 303.173 151.673 296.045C162.659 286.925 174.059 276.994 185.062 265.838L247.714 275.285Z" fill="black"/>
<path d="M414.694 373.014C416.454 372.529 418.187 371.907 419.974 371.56C447.238 366.546 464.228 382.782 468.128 402.846C471.307 419.2 468.042 444.223 431.15 462.804C427.79 464.598 425.805 466.125 425.939 466.812C425.992 467.087 426.733 467.228 427.969 466.988C437.589 465.118 483.938 444.556 475.683 402.091C471.356 379.828 451.632 361.27 420.574 367.307C383.743 374.467 372.014 410.975 376.047 431.727C377.009 436.674 378.826 440.885 381.612 443.481C389.125 450.578 392.705 458.725 399.027 457.496C409.746 455.412 429.64 422.023 423.283 389.315C421.6 380.657 418.504 374.27 414.694 373.014ZM406.796 376.403C408.365 375.671 409.411 375.182 410.51 374.968C413.534 374.381 416.408 375.961 418.492 386.681C423.781 413.891 407.025 445.815 398.642 447.445C392.595 448.62 383.911 439.897 381.667 428.353C378.167 410.35 388.208 386.434 406.796 376.403Z" fill="black"/>
<path d="M629.158 348.965C627.834 345.853 619.593 335.095 610.06 334.736C598.548 334.302 592.216 349.374 589.42 366.2C574.654 380.414 564.673 401.473 562.689 420.672C562.346 424.982 561.359 427.287 559.38 427.212C557.761 427.151 546.619 421.687 547.243 405.139C547.406 400.822 548.295 396.352 549.191 391.703C550.782 382.937 552.452 376.875 552.669 371.119C553.062 360.687 546.916 356.492 543.318 356.357C540.62 356.255 536.941 358.278 536.894 359.537C536.86 360.436 538.645 360.864 540.223 362.004C542.867 363.545 543.502 370.594 543.217 378.148C543.054 382.465 542.525 386.948 542.016 390.892C541.541 393.936 541.432 396.814 541.324 399.692C539.961 435.846 566.772 441.361 567.312 441.381C568.571 441.428 572.375 440.851 572.477 438.153C572.531 436.714 571.686 435.241 571.014 433.955C569.49 431.376 569.612 428.138 569.884 420.943C570.541 403.496 577.488 386.465 588.416 373.728C588.114 376.959 587.805 380.37 587.676 383.787C587.106 398.897 589.083 432.475 610.44 444.088C605.251 452.718 598.478 460.389 590.146 466.379C584.967 469.966 582.547 472.037 582.52 472.756C582.514 472.936 582.693 472.943 582.873 472.95C584.672 473.017 603.138 465.788 616.821 446.85C619.492 447.671 622.176 448.133 625.054 448.241C649.337 449.157 676.673 426.411 677.792 396.732C679.013 364.355 651.102 349.793 630.417 349.013L629.158 348.965ZM630.98 353.177C646.062 354.466 669.792 365.268 668.7 394.227C667.798 418.15 648.583 440.482 626.279 439.641C624.66 439.58 623.048 439.339 621.616 439.105C630.687 423.056 634.45 404.464 635.067 388.096C635.61 373.706 633.74 361.207 630.98 353.177ZM595.156 366.957C603.355 359.701 612.552 354.644 622.686 353.405C625.32 359.989 626.851 371.935 626.322 385.965C625.725 401.794 622.321 420.399 614.502 436.676C591.519 425.181 591.423 389.513 591.789 379.799C591.925 376.202 592.24 372.611 592.729 369.207L595.156 366.957ZM620.67 349.546C610.882 351.158 601.885 355.683 594.08 362.053C594.3 360.981 599.77 340.112 608.944 340.458C612.541 340.593 616.383 343.8 620.67 349.546Z" fill="black"/>
<path d="M778.359 285.508C778.104 287.289 776.424 288.868 773.165 290.038C768.939 291.616 764.204 292.939 760.131 294.72C753.716 297.622 746.995 302.661 745.619 312.283C745.492 313.174 745.568 313.912 745.441 314.803C745.313 318.24 745.134 320.76 744.803 323.076C744.523 325.036 744.09 326.793 743.581 329.084C740.907 338.884 736.985 352.324 735.583 362.124C732.45 384.042 743.853 389.491 745.991 389.796C747.952 390.076 750.294 388.957 753.629 385.979C763.507 376.663 767.071 372.082 776.338 367.042C780.691 364.574 785.324 363.963 789.6 364.575C801.183 366.231 809.811 375.829 808.231 386.876C806.754 397.211 794.456 417.091 752.402 421.26C746.318 421.845 743.696 422.379 743.645 422.736C743.62 422.914 744.155 422.99 745.045 423.118C774.625 427.347 814.057 414.802 817.879 388.074C820.35 370.79 802.762 360.274 793.318 358.924C786.903 358.007 779.648 359.152 773.945 362.155C764.552 366.812 758.951 371.648 754.267 373.887C751.161 375.262 748.844 376.203 747.062 375.948C744.746 375.617 740.419 374.089 742.61 358.765C743.552 352.172 745.59 344.281 748.289 336.848C751.065 328.881 752.72 324.936 753.28 321.015C753.611 318.699 753.586 316.332 753.307 313.2C753.281 312.106 753.307 310.655 753.511 309.229C755.447 295.687 766.928 296.783 771.56 297.446C775.302 297.981 779.35 298.923 781.539 300.145C783.219 301.113 785.051 302.284 787.012 302.564C790.041 302.997 793.579 299.867 794.165 295.768C795.796 284.364 775.815 272.779 774.924 272.652C774.389 272.576 774.16 272.906 774.134 273.085C774.033 273.797 774.898 275.376 775.025 275.758C775.687 277.489 778.436 281.155 778.435 284.973L778.359 285.508Z" fill="black"/>
<path d="M934.138 461.518C931.056 459.649 921.603 452.908 911.784 447.605C881.85 431.44 872.736 447.18 871.539 449.397C866.407 458.9 869.067 476.703 890.607 488.335C904.862 496.032 909.509 494.246 910.877 491.712C912.074 489.494 910.811 486.152 907.643 484.442C907.009 484.1 906.29 483.916 905.413 483.647C902.695 482.997 897.43 481.382 892.362 478.645C875.574 469.579 874.944 456.351 877.51 451.599C879.22 448.431 888.837 439.714 905.784 448.866C917.029 454.938 929.158 466.193 929.921 470.083C930.248 472.51 930.685 473.973 932.427 474.914C935.753 476.71 942.605 476.523 946.881 468.604C948.506 465.595 949.425 462 949.162 457.562C948.636 448.686 948.573 440.469 948.985 432.509C960.686 434.327 971.878 434.438 974.016 430.479C974.871 428.895 973.813 426.687 971.121 425.233C970.962 425.147 967.199 421.888 963.195 416.043C961.114 413.078 959.556 411.419 958.922 411.076C958.764 410.991 958.605 410.905 958.52 411.064C958.349 411.381 958.7 413.002 959.99 415.54C962.41 420.529 962.248 423.101 961.478 424.526C960.794 425.793 959.502 425.914 959.502 425.914C956.99 426.398 953.455 426.126 949.444 425.597C949.758 418.197 950.23 410.883 950.8 403.008C954.25 403.439 965.001 404.744 967.139 400.785C967.567 399.993 968.131 397.434 966.072 396.322C964.488 395.466 960.709 395.267 956.502 395.859C954.966 396.052 953.113 396.074 951.187 395.853C952.974 359.586 951.837 352.221 943.601 347.774C942.334 347.09 935.644 344.704 934.105 347.555C933.762 348.189 933.664 348.749 934.212 349.25C935.711 350.263 938.745 351.084 941.368 359.865C944.938 371.816 946.179 383.533 946.299 395.054C942.85 394.623 939.755 393.157 938.33 392.387C929.619 387.683 925.241 378.364 921.858 373.264C921.396 372.605 920.483 370.885 919.691 370.457C919.375 370.286 918.972 370.273 918.801 370.59C918.545 371.065 915.367 387.556 935.165 398.247C938.333 399.958 940.721 400.838 946.157 402.137C945.916 409.781 945.273 417.412 944.557 424.799C933.989 422.774 926.653 420.449 919.051 416.344C910.498 411.725 904.654 405.501 900.802 394.829C900.207 393.28 899.671 392.377 899.196 392.12C898.721 391.864 898.392 392.095 898.05 392.728C898.05 392.728 891.385 409.995 911.657 420.943C925.595 428.47 942.171 431.489 943.853 431.783C943.039 439.731 942.31 447.52 942.07 455.164C941.921 457.334 941.54 459.174 940.856 460.441C939.659 462.658 937.622 463.4 934.454 461.689L934.138 461.518ZM1001.84 408.885C1003.9 409.997 1006.58 409.196 1007.86 406.82C1012.05 399.059 1001 389.61 993.076 385.333C991.809 384.649 988.642 382.939 988.3 383.572C988.128 383.889 989.212 385.292 989.905 386.281C993.143 390.893 997.048 397.298 998.832 404.602C999.487 406.798 1000.57 408.201 1001.84 408.885ZM980.614 407.653C982.673 408.764 985.442 407.805 986.725 405.429C990.574 398.302 980.589 388 971.878 383.296C969.978 382.27 968.15 381.488 967.893 381.963C967.722 382.279 968.647 383.597 969.341 384.586C972.334 389.271 976.155 395.834 977.694 403.211C978.106 405.48 979.189 406.883 980.614 407.653Z" fill="black"/>
</svg>
