<svg width="1403" height="848" viewBox="0 0 1403 848" fill="none" xmlns="http://www.w3.org/2000/svg">
<path d="M342.725 336.348C339.537 336.626 338.222 339.953 337.433 341.95C336.325 343.974 335.396 344.376 333.484 344.543L272.914 349.835L271.8 337.084C270.519 322.42 271.033 324.623 276.437 320.296C277.628 319.229 279.402 317.468 279.262 315.874C279.207 315.236 278.832 314.626 277.82 314.072L310.974 311.176L311.28 314.682C311.559 317.87 314.539 318.895 317.727 318.616C322.509 318.198 327.705 315.175 327.343 311.031L327.316 310.712C325.357 299.319 323.385 291.461 322.744 284.129C322.02 275.84 321.992 275.521 327.161 272.179C329.6 270.681 334.534 268.323 334.199 264.497C333.754 259.397 316.23 250.006 310.173 250.535C308.26 250.703 307.041 251.451 302.816 258.245C301.971 259.604 300.405 260.062 298.492 260.229L216.246 267.415C210.839 264.354 193.856 257.486 190.031 257.82C189.712 257.848 189.74 258.167 189.768 258.485C189.824 259.123 189.879 259.76 190.282 260.689C193.779 271.305 194.587 280.55 194.949 284.694C195.784 294.257 196.539 310.252 196.517 324.709L196.601 325.666C197.019 330.447 200.72 332.372 204.227 332.066C208.69 331.676 213.512 328.043 213.011 322.305L212.788 319.754L253.911 316.161C255.66 321.469 256.799 327.152 258.748 349.467L258.888 351.061L206.607 355.628L205.914 355.047C202.559 353.412 184.967 346.919 180.504 347.309C178.91 347.448 178.647 348.113 178.758 349.389L178.814 350.026C179.841 354.433 183.465 370.178 185.192 389.942C186.306 402.694 186.659 417.76 187.346 436.652L187.43 437.609C187.903 443.028 190.967 445.009 194.474 444.702C199.255 444.285 204.632 439.639 204.158 434.22C200.816 395.966 200.231 389.271 200.144 380.927C199.875 366.817 198.879 370.116 208.343 364.471L259.668 359.987C262.174 388.677 263.824 422.261 265.315 443.01L265.343 443.329C265.844 449.067 269.255 451.339 272.762 451.032C277.544 450.615 282.601 445.997 282.099 440.259L282.072 439.94C278.553 410.695 276.145 386.814 273.694 358.761L335.22 353.386C336.814 353.246 339.364 353.024 339.698 356.849C341.286 375.02 341.871 381.714 343.251 401.188C343.891 408.52 337.101 411.683 328.175 412.463C319.249 413.243 308.188 411.64 299.441 410.798C296.516 410.411 294.894 410.231 293.938 410.315C293.301 410.371 293.01 410.717 293.01 410.717C293.177 412.63 322.233 421.655 326.504 426.422C328.292 428.514 329.332 429.387 331.883 429.164C335.071 428.885 361.486 422.401 359.676 401.68C359.091 394.986 357.884 392.2 357.411 386.781C356.993 381.999 356.368 378.52 355.978 374.057L355.644 370.232C355.195 357.744 357.067 360.792 364.938 355.286C367.349 353.47 368.832 352.055 368.664 350.142C368.191 344.723 347.188 335.958 342.725 336.348ZM370.436 208.651L370.117 208.679C369.161 208.763 367.914 209.193 367.013 209.914C364.602 211.731 363.383 212.48 361.083 215.572C359.947 217.277 356.871 218.831 356.233 218.886L282.912 225.292C293.748 216.958 316.444 197.308 322.43 192.288C325.104 189.805 326.323 189.056 329.511 188.778L334.293 188.36C339.075 187.942 341.832 186.417 341.637 184.185C341.052 177.491 313.396 166.094 312.12 166.206C311.483 166.262 311.539 166.899 311.068 168.868C307.416 185.89 302.25 196.62 278.768 225.654L262.51 227.075C262.216 220.034 260.947 201.835 260.848 197.025C260.802 185.466 260.248 186.478 267.772 180.681C270.446 178.199 272.801 175.744 272.579 173.194C272.022 166.818 244.188 164.432 240.363 164.766C240.044 164.794 239.725 164.822 239.781 165.459C239.809 165.778 239.837 166.097 240.239 167.025C243.222 175.438 245.85 194.481 247.199 206.248L249.121 228.245L159.224 236.099C159.084 234.505 159.264 232.883 159.125 231.289C158.094 219.494 154.501 211.456 152.907 211.596C152.269 211.651 151.687 212.345 151.48 213.648C148.855 235.077 145.367 246.625 124.958 266.717C120.22 271.307 118.669 275.619 119.004 279.444C119.421 284.226 123.9 287.689 129.638 287.188C131.869 286.993 154.516 281.481 158.645 244.18L355.973 226.94C356.929 226.856 357.304 227.466 357.387 228.422C357.61 230.972 350.492 245.085 344.397 256.218C343.552 257.577 343.289 258.242 343.317 258.561C343.345 258.88 343.664 258.852 343.664 258.852C344.301 258.796 345.23 258.394 346.449 257.645C356.233 251.972 370.823 238.812 385.75 236.865C394.01 235.823 396.657 233.022 396.35 229.515C395.765 222.82 383.55 211.681 370.436 208.651ZM310.278 303.206L212.092 311.785C211.34 303.177 210.157 293.323 209.795 289.179L209.628 287.266C209.043 280.571 210.554 279.476 214.475 276.563L304.373 268.709C306.604 268.514 307.465 271.009 307.492 271.328C308.034 273.85 308.285 276.719 308.563 279.907C309.12 286.283 309.498 294.28 310.278 303.206ZM171.65 187.152C169.1 187.374 167.853 187.805 167.909 188.442C167.964 189.08 169.004 189.953 171.028 191.061C179.79 195.756 193.752 204.815 199.521 212.02C203.501 217.133 207.84 219.003 211.347 218.696C216.128 218.278 219.592 213.8 219.09 208.062C217.419 188.935 183.155 186.468 171.65 187.152Z" fill="black"/>
<path d="M649.102 548.508C648.904 547.895 649.075 546.756 649.333 545.048C650.793 535.365 658.231 511.147 659.519 502.604C659.777 500.895 659.664 499.713 659.379 499.67L659.094 499.627C658.482 499.826 657.37 501.406 655.715 504.652C640.884 531.541 635.34 537.404 631.353 536.803C629.645 536.545 614.685 527.59 607.061 497.024C617.735 486.11 627.201 473.557 635.414 459.65C636.94 457.259 638.251 456.291 641.668 456.806C646.794 457.579 649.615 456.257 649.958 453.979C650.645 449.422 631.23 437.175 629.522 436.917C628.667 436.788 628.496 437.927 628.324 439.067C626.638 446.385 619.279 460.421 603.813 479.933C601.322 459.752 601.582 436.782 603.593 413.785L657.417 421.9C662.258 422.63 663.896 421.421 664.111 419.997C664.412 418.004 658.183 407.162 648.532 401.629C647.962 401.543 647.435 401.173 646.866 401.087C643.733 400.614 637.034 408.342 636.008 409.352C634.939 410.647 632.532 411.158 631.678 411.029L604.339 406.907C605.589 392.824 607.408 378.827 609.469 365.157C611.187 353.766 613.146 342.702 615.02 332.208C617.151 320.006 617.705 322.128 622.776 319.398C625.028 317.99 626.424 316.453 626.725 314.459C627.412 309.903 621.377 305.498 603.893 301.696C601.899 301.396 601.614 301.353 601.571 301.638C601.529 301.922 601.727 302.535 601.883 303.432C603.938 316.849 600.853 346.965 600.349 354.171C599.899 364.879 596.824 383.347 594.656 405.447L545.959 398.104C557.402 387.888 565.895 379.849 571.397 374.27C573.777 372.008 573.664 370.826 577.452 370.815C582.379 370.975 584.345 369.524 584.56 368.1C585.161 364.113 566.031 351.908 564.037 351.608C563.468 351.522 563.624 352.419 563.038 354.37C561.138 363.112 551.652 383.526 543.111 397.675C528.587 395.485 520.984 393.756 494.644 386.871C494.172 390.004 499.39 399.82 504.232 400.55L504.516 400.593C520.066 401.773 526.987 402.234 542.08 404.509L594.195 412.368C592.012 436.504 591.065 464.03 595.389 489.439C571.075 515.481 538.463 534.738 498.885 538.381C493.26 538.989 489.869 540.226 489.741 541.08C489.655 541.65 490.466 542.063 492.175 542.321C501.857 543.781 556.244 542.37 598.567 505.064C609.088 545.387 632.389 560.842 640.932 562.13C645.489 562.817 649.292 560.769 650.022 555.928C650.323 553.935 650.097 551.57 649.102 548.508ZM561.448 422.866C560.878 422.78 560.593 422.737 559.981 422.936C558.756 423.334 555.592 426.935 554.152 428.756C553.126 429.767 551.53 430.691 550.106 430.476L525.9 426.826C521.617 422.394 509.349 412.972 507.07 412.628C506.786 412.585 506.458 412.827 506.372 413.397C506.329 413.681 506.528 414.294 506.399 415.148C506.847 425.701 504.223 448.897 503.708 452.314C501.732 465.414 497.025 494.704 493.438 510.765L493.309 511.619C492.665 515.891 494.686 517.943 497.533 518.372C501.236 518.93 505.98 516.442 506.71 511.601L508.857 497.362L544.739 502.772L544.396 505.05C543.623 510.176 546.17 512.599 549.302 513.072C552.72 513.587 557.663 511.711 558.607 505.446L558.693 504.876C559.627 494.823 562.165 472.197 563.753 461.66C565.428 450.553 566.712 447.834 570.516 445.786C572.154 444.577 576.684 443.513 577.199 440.095C578.015 434.685 565.15 423.425 561.448 422.866ZM471.875 439.359C470.822 438.618 469.726 438.162 468.872 438.033C468.302 437.947 467.974 438.189 467.69 438.146C466.465 438.544 462.774 441.773 461.334 443.595C460.265 444.89 458.712 445.53 457.288 445.315L439.632 442.653C433.898 436.254 419.905 428.61 419.62 428.568C419.336 428.525 419.008 428.766 418.922 429.336C418.879 429.621 419.078 430.233 418.949 431.088C419.354 441.925 417.455 466.104 415.652 478.065C414.106 488.317 412.361 497.957 407.389 519.343L407.26 520.197C406.659 524.184 408.965 526.279 411.812 526.708C415.514 527.267 420.543 524.821 421.187 520.549C422.132 514.284 422.792 507.976 423.694 501.996L454.45 506.633L453.248 514.607C452.518 519.448 455.35 521.914 458.482 522.387C462.469 522.988 467.17 520.784 467.943 515.658L468.029 515.088C469.708 498.158 470.572 486.637 472.032 476.955C473.706 465.848 474.05 463.57 479.036 461.409C480.916 460.528 485.73 459.506 486.246 456.089C486.632 453.526 485.922 450.506 471.875 439.359ZM581.185 330.602C580.616 330.516 580.089 330.145 579.519 330.059C576.672 329.63 568.919 336.616 567.893 337.626C566.824 338.922 564.745 339.191 563.89 339.062L559.049 338.332C559.607 334.63 560.466 328.934 561.094 326.699C563.538 316.291 561.614 317.457 570.318 313.818C573.096 312.78 575.632 311.415 575.889 309.707C576.619 304.865 553.541 297.599 549.269 296.955C548.984 296.912 548.657 297.154 548.571 297.723C548.528 298.008 548.485 298.293 548.641 299.19C549.448 305.428 547.457 320.565 546.41 329.436C546.195 330.86 546.008 334.035 545.664 336.313C536.836 334.982 528.948 333.21 508.589 327.228C508.159 330.076 513.62 340.219 518.461 340.949L518.746 340.992C537.6 341.505 551.839 343.652 554.687 344.082L591.709 349.664C596.265 350.351 598.188 349.185 598.446 347.476C598.747 345.483 592.985 337.332 581.185 330.602ZM455.567 499.229L424.81 494.591C426.442 483.77 428.074 472.948 430.076 461.6C431.048 457.086 430.338 454.067 435.695 451.379C436.35 450.896 436.963 450.697 437.575 450.498L460.643 453.976C460.927 454.019 462.066 454.191 461.637 457.038C461.133 464.244 460.231 470.224 459.287 476.489C458.299 483.039 457.268 489.874 455.567 499.229ZM491.658 325.549C491.416 325.221 490.846 325.135 490.277 325.049C487.144 324.577 479.204 334.739 477.722 336.845C476.653 338.14 474.815 338.737 474.246 338.651L463.424 337.019C451.748 335.259 439.873 332.886 418.745 326.205C418.273 329.337 424.942 341.12 428.36 341.635L428.645 341.678C446.929 342.105 450.39 342.335 461.781 344.053L502.22 350.151C506.207 350.752 507.517 349.784 507.732 348.36C508.076 346.082 501.508 331.694 491.658 325.549ZM550.29 469.823C548.959 478.652 547.542 488.049 546.054 495.98L509.887 490.527L513.838 464.327L550.29 469.823ZM551.277 463.274L514.825 457.777L517.144 442.399C518.089 436.134 519.056 437.445 524.542 433.903L551.596 437.982C553.874 438.326 554.057 440.975 554.014 441.26C553.897 445.902 552.652 454.161 551.277 463.274ZM495.29 287.942C495.048 287.614 494.478 287.528 493.909 287.442C491.915 287.142 485.103 293.687 481.81 298.142C480.741 299.437 478.576 300.276 478.006 300.19L469.178 298.859C468.324 298.73 455.353 295.9 439.066 289.949C438.422 294.221 443.882 304.365 447.869 304.966L448.154 305.009C460.899 305.474 464.402 305.42 465.826 305.635L504.841 311.518C508.543 312.076 509.94 310.539 510.241 308.545C510.885 304.274 503.758 293.588 495.29 287.942ZM479.654 360.728C479.412 360.401 478.843 360.315 478.273 360.229C476.565 359.971 470.451 365.748 466.83 370.445C466.046 371.783 464.208 372.38 463.639 372.294L456.804 371.263C456.235 371.177 446.353 369.105 430.066 363.154C429.293 368.28 435.737 377.698 438.87 378.17L439.155 378.213C446.688 378.475 452.598 377.91 453.168 377.996L487.911 383.235C491.898 383.836 493.337 382.014 493.595 380.306C494.497 374.325 485.205 364.478 479.654 360.728ZM474.158 397.18C473.916 396.852 473.346 396.767 472.777 396.681C469.929 396.251 463.558 403.737 461.377 406.612C460.592 407.95 458.755 408.547 458.185 408.461L451.066 407.387C450.496 407.301 440.9 405.272 424.613 399.321C423.969 403.593 429.714 413.779 433.416 414.337L433.701 414.38C444.168 414.502 447.145 414.077 447.714 414.163L482.457 419.402C486.444 420.003 487.884 418.182 488.142 416.473C489.129 409.923 477.318 399.404 474.158 397.18ZM626.235 340.89C625.665 340.804 625.38 340.761 625.337 341.046C625.294 341.33 625.536 341.658 626.547 342.684C633.904 349.91 640.944 361.165 643.927 370.353C645.675 376.15 648.748 378.944 651.881 379.416C655.868 380.017 659.559 376.788 660.332 371.661C662.522 357.138 639.619 342.908 626.235 340.89ZM516.974 348.88C516.12 348.751 515.792 348.993 515.749 349.278C515.62 350.132 516.061 351.073 516.743 352.341C520.726 358.766 524.021 369.748 524.501 376.228C525.023 382.423 527.527 385.131 530.66 385.603C534.362 386.161 538.993 382.491 539.852 376.795C542.085 361.987 520.107 349.353 516.974 348.88Z" fill="black"/>
<path d="M749.525 384.429C751.285 383.944 753.018 383.322 754.805 382.975C782.069 377.961 799.059 394.197 802.96 414.261C806.138 430.615 802.873 455.638 765.981 474.219C762.621 476.013 760.636 477.54 760.77 478.227C760.823 478.502 761.564 478.643 762.8 478.403C772.42 476.533 818.769 455.971 810.514 413.506C806.187 391.243 786.463 372.685 755.405 378.722C718.574 385.882 706.845 422.391 710.878 443.142C711.84 448.09 713.657 452.3 716.443 454.896C723.956 461.993 727.536 470.14 733.858 468.911C744.577 466.827 764.471 433.438 758.114 400.73C756.431 392.072 753.335 385.685 749.525 384.429ZM741.627 387.818C743.196 387.086 744.242 386.597 745.341 386.383C748.365 385.796 751.239 387.376 753.323 398.096C758.612 425.306 741.856 457.23 733.473 458.86C727.426 460.035 718.742 451.312 716.498 439.768C712.998 421.765 723.04 397.849 741.627 387.818Z" fill="black"/>
<path d="M963.989 360.38C962.665 357.268 954.424 346.51 944.891 346.151C933.379 345.717 927.047 360.789 924.251 377.615C909.485 391.829 899.504 412.888 897.52 432.087C897.177 436.397 896.19 438.701 894.211 438.627C892.592 438.566 881.45 433.102 882.074 416.554C882.237 412.237 883.126 407.767 884.022 403.118C885.613 394.351 887.283 388.29 887.5 382.534C887.893 372.101 881.747 367.907 878.149 367.771C875.451 367.67 871.772 369.692 871.725 370.952C871.691 371.851 873.476 372.278 875.054 373.419C877.698 374.959 878.333 382.008 878.048 389.563C877.885 393.88 877.356 398.363 876.847 402.307C876.372 405.351 876.264 408.229 876.155 411.107C874.792 447.261 901.603 452.775 902.143 452.796C903.402 452.843 907.206 452.266 907.308 449.568C907.362 448.129 906.517 446.656 905.845 445.37C904.321 442.791 904.443 439.553 904.715 432.358C905.372 414.91 912.319 397.88 923.247 385.143C922.945 388.374 922.636 391.784 922.507 395.202C921.938 410.311 923.914 443.89 945.271 455.503C940.083 464.133 933.309 471.803 924.977 477.794C919.798 481.381 917.379 483.452 917.351 484.171C917.345 484.351 917.525 484.358 917.704 484.364C919.503 484.432 937.969 477.203 951.652 458.265C954.323 459.086 957.007 459.548 959.885 459.656C984.168 460.572 1011.5 437.826 1012.62 408.147C1013.84 375.77 985.933 361.208 965.248 360.428L963.989 360.38ZM965.811 364.592C980.893 365.881 1004.62 376.683 1003.53 405.642C1002.63 429.565 983.414 451.897 961.11 451.056C959.491 450.995 957.879 450.754 956.447 450.52C965.518 434.47 969.281 415.879 969.899 399.511C970.441 385.121 968.571 372.622 965.811 364.592ZM929.987 378.372C938.186 371.116 947.383 366.059 957.517 364.82C960.151 371.403 961.682 383.35 961.153 397.38C960.556 413.208 957.152 431.813 949.334 448.09C926.35 436.596 926.254 400.927 926.62 391.214C926.756 387.617 927.072 384.026 927.56 380.622L929.987 378.372ZM955.501 360.961C945.713 362.573 936.716 367.097 928.911 373.468C929.131 372.395 934.601 351.527 943.775 351.873C947.372 352.008 951.214 355.215 955.501 360.961Z" fill="black"/>
<path d="M1113.19 296.922C1112.93 298.704 1111.25 300.282 1108 301.453C1103.77 303.031 1099.03 304.354 1094.96 306.135C1088.55 309.036 1081.83 314.076 1080.45 323.698C1080.32 324.589 1080.4 325.327 1080.27 326.218C1080.14 329.655 1079.96 332.175 1079.63 334.491C1079.35 336.451 1078.92 338.208 1078.41 340.499C1075.74 350.299 1071.81 363.739 1070.41 373.539C1067.28 395.456 1078.68 400.905 1080.82 401.211C1082.78 401.491 1085.12 400.372 1088.46 397.394C1098.34 388.078 1101.9 383.496 1111.17 378.457C1115.52 375.989 1120.15 375.378 1124.43 375.99C1136.01 377.646 1144.64 387.244 1143.06 398.291C1141.58 408.626 1129.29 428.506 1087.23 432.675C1081.15 433.26 1078.53 433.794 1078.48 434.151C1078.45 434.329 1078.98 434.405 1079.88 434.533C1109.45 438.762 1148.89 426.217 1152.71 399.489C1155.18 382.205 1137.59 371.689 1128.15 370.339C1121.73 369.422 1114.48 370.566 1108.78 373.569C1099.38 378.227 1093.78 383.063 1089.1 385.302C1085.99 386.676 1083.67 387.618 1081.89 387.363C1079.58 387.032 1075.25 385.504 1077.44 370.18C1078.38 363.587 1080.42 355.696 1083.12 348.263C1085.89 340.296 1087.55 336.35 1088.11 332.43C1088.44 330.114 1088.42 327.746 1088.14 324.615C1088.11 323.521 1088.14 322.07 1088.34 320.644C1090.28 307.102 1101.76 308.198 1106.39 308.86C1110.13 309.395 1114.18 310.338 1116.37 311.56C1118.05 312.527 1119.88 313.699 1121.84 313.979C1124.87 314.412 1128.41 311.281 1129 307.183C1130.63 295.779 1110.64 284.194 1109.75 284.067C1109.22 283.99 1108.99 284.321 1108.96 284.499C1108.86 285.212 1109.73 286.791 1109.86 287.172C1110.52 288.903 1113.27 292.569 1113.27 296.388L1113.19 296.922Z" fill="black"/>
<path d="M1268.97 472.933C1265.89 471.064 1256.44 464.323 1246.62 459.02C1216.68 442.855 1207.57 458.595 1206.37 460.812C1201.24 470.315 1203.9 488.118 1225.44 499.75C1239.69 507.447 1244.34 505.661 1245.71 503.127C1246.91 500.909 1245.64 497.567 1242.47 495.857C1241.84 495.515 1241.12 495.331 1240.24 495.062C1237.53 494.412 1232.26 492.797 1227.19 490.06C1210.41 480.994 1209.78 467.766 1212.34 463.014C1214.05 459.846 1223.67 451.129 1240.62 460.281C1251.86 466.353 1263.99 477.608 1264.75 481.498C1265.08 483.925 1265.52 485.388 1267.26 486.329C1270.58 488.125 1277.44 487.938 1281.71 480.019C1283.34 477.01 1284.26 473.415 1283.99 468.977C1283.47 460.101 1283.41 451.884 1283.82 443.924C1295.52 445.742 1306.71 445.853 1308.85 441.894C1309.7 440.31 1308.65 438.102 1305.95 436.648C1305.79 436.562 1302.03 433.303 1298.03 427.458C1295.95 424.494 1294.39 422.834 1293.75 422.492C1293.6 422.406 1293.44 422.32 1293.35 422.479C1293.18 422.796 1293.53 424.417 1294.82 426.955C1297.24 431.944 1297.08 434.516 1296.31 435.941C1295.63 437.209 1294.33 437.329 1294.33 437.329C1291.82 437.813 1288.29 437.541 1284.28 437.012C1284.59 429.612 1285.06 422.298 1285.63 414.423C1289.08 414.854 1299.83 416.159 1301.97 412.2C1302.4 411.408 1302.96 408.849 1300.9 407.737C1299.32 406.881 1295.54 406.682 1291.33 407.274C1289.8 407.467 1287.94 407.489 1286.02 407.268C1287.81 371.001 1286.67 363.636 1278.43 359.189C1277.17 358.505 1270.48 356.119 1268.94 358.97C1268.59 359.604 1268.5 360.164 1269.04 360.665C1270.54 361.678 1273.58 362.499 1276.2 371.28C1279.77 383.231 1281.01 394.949 1281.13 406.469C1277.68 406.038 1274.59 404.572 1273.16 403.802C1264.45 399.098 1260.07 389.779 1256.69 384.679C1256.23 384.02 1255.32 382.3 1254.52 381.872C1254.21 381.701 1253.8 381.688 1253.63 382.005C1253.38 382.48 1250.2 398.971 1270 409.662C1273.16 411.373 1275.55 412.253 1280.99 413.552C1280.75 421.196 1280.1 428.827 1279.39 436.214C1268.82 434.189 1261.49 431.864 1253.88 427.759C1245.33 423.14 1239.49 416.916 1235.63 406.244C1235.04 404.695 1234.5 403.792 1234.03 403.535C1233.55 403.279 1233.22 403.51 1232.88 404.143C1232.88 404.143 1226.22 421.41 1246.49 432.358C1260.43 439.885 1277 442.904 1278.69 443.198C1277.87 451.146 1277.14 458.935 1276.9 466.579C1276.75 468.749 1276.37 470.589 1275.69 471.856C1274.49 474.073 1272.45 474.815 1269.29 473.104L1268.97 472.933ZM1336.67 420.3C1338.73 421.412 1341.41 420.611 1342.69 418.235C1346.89 410.474 1335.83 401.025 1327.91 396.749C1326.64 396.064 1323.47 394.354 1323.13 394.987C1322.96 395.304 1324.04 396.707 1324.74 397.696C1327.97 402.308 1331.88 408.713 1333.66 416.017C1334.32 418.213 1335.4 419.616 1336.67 420.3ZM1315.45 419.068C1317.51 420.18 1320.27 419.22 1321.56 416.844C1325.41 409.717 1315.42 399.415 1306.71 394.711C1304.81 393.685 1302.98 392.903 1302.73 393.378C1302.55 393.694 1303.48 395.012 1304.17 396.001C1307.17 400.686 1310.99 407.249 1312.53 414.627C1312.94 416.895 1314.02 418.298 1315.45 419.068Z" fill="black"/>
</svg>
