<svg width="390" height="555" viewBox="0 0 390 555" fill="none" xmlns="http://www.w3.org/2000/svg">
<path d="M162.658 124.709C161.663 124.812 161.27 125.859 161.034 126.487C160.698 127.125 160.41 127.255 159.813 127.318L140.916 129.287L140.501 125.309C140.024 120.734 140.196 121.42 141.862 120.039C142.229 119.7 142.774 119.14 142.722 118.643C142.701 118.444 142.581 118.255 142.262 118.087L152.606 117.009L152.72 118.103C152.823 119.098 153.76 119.403 154.755 119.299C156.246 119.143 157.854 118.171 157.72 116.878L157.709 116.779C157.038 113.229 156.381 110.784 156.142 108.497C155.873 105.911 155.862 105.811 157.46 104.74C158.214 104.259 159.743 103.497 159.619 102.303C159.453 100.712 153.928 97.869 152.039 98.066C151.442 98.1282 151.065 98.3686 149.78 100.513C149.523 100.942 149.036 101.094 148.44 101.156L122.779 103.831C121.073 102.902 115.731 100.845 114.538 100.97C114.438 100.98 114.448 101.079 114.459 101.179C114.48 101.378 114.5 101.577 114.631 101.865C115.779 105.163 116.08 108.048 116.214 109.341C116.526 112.325 116.845 117.318 116.914 121.836L116.945 122.134C117.1 123.626 118.267 124.208 119.361 124.094C120.753 123.949 122.241 122.788 122.055 120.998L121.972 120.202L134.802 118.865C135.376 120.514 135.762 122.284 136.487 129.246L136.539 129.744L120.228 131.444L120.008 131.266C118.951 130.773 113.421 128.835 112.028 128.981C111.531 129.032 111.452 129.242 111.493 129.64L111.514 129.839C111.858 131.21 113.073 136.111 113.716 142.277C114.13 146.256 114.319 150.962 114.633 156.861L114.664 157.159C114.84 158.85 115.808 159.453 116.902 159.339C118.394 159.183 120.049 157.704 119.873 156.013C118.629 144.078 118.411 141.989 118.34 139.382C118.183 134.975 117.888 136.011 120.816 134.198L136.83 132.528C137.763 141.48 138.453 151.965 139.028 158.44L139.038 158.54C139.225 160.33 140.302 161.022 141.396 160.908C142.888 160.752 144.444 159.283 144.258 157.493L144.247 157.393C142.995 148.274 142.118 140.825 141.206 132.072L160.402 130.071C160.899 130.02 161.695 129.937 161.819 131.13C162.41 136.799 162.628 138.888 163.161 144.966C163.399 147.253 161.294 148.277 158.509 148.567C155.724 148.858 152.26 148.414 149.522 148.197C148.606 148.091 148.099 148.044 147.8 148.075C147.601 148.096 147.512 148.205 147.512 148.205C147.575 148.802 156.7 151.47 158.06 152.937C158.63 153.582 158.959 153.849 159.755 153.766C160.749 153.663 168.969 151.499 168.296 145.034C168.078 142.945 167.686 142.081 167.51 140.39C167.354 138.898 167.141 137.814 166.996 136.422L166.871 135.228C166.666 131.329 167.267 132.272 169.697 130.51C170.441 129.93 170.897 129.48 170.835 128.883C170.659 127.193 164.05 124.563 162.658 124.709ZM170.65 84.6643L170.55 84.6747C170.252 84.7058 169.864 84.8467 169.587 85.0767C168.843 85.657 168.466 85.8974 167.763 86.8755C167.417 87.4142 166.464 87.9158 166.265 87.9365L143.389 90.321C146.731 87.6602 153.72 81.4019 155.564 79.8021C156.387 79.0125 156.764 78.7721 157.758 78.6685L159.25 78.513C160.742 78.3575 161.596 77.8663 161.523 77.1701C161.306 75.0814 152.605 71.6651 152.207 71.7065C152.008 71.7273 152.029 71.9262 151.892 72.5437C150.84 77.8815 149.282 81.2613 142.096 90.4558L137.024 90.9845C136.895 88.786 136.403 83.1063 136.347 81.604C136.273 77.9923 136.105 78.3115 138.425 76.4609C139.248 75.6714 139.971 74.8922 139.888 74.0965C139.681 72.1073 130.972 71.507 129.778 71.6314C129.679 71.6417 129.579 71.6521 129.6 71.851C129.61 71.9505 129.621 72.0499 129.751 72.338C130.727 74.9508 131.648 80.8874 132.131 84.5571L132.846 91.4199L104.798 94.3435C104.746 93.8462 104.794 93.3385 104.742 92.8412C104.359 89.1612 103.194 86.6685 102.697 86.7203C102.498 86.7411 102.319 86.9607 102.261 87.3689C101.553 94.0785 100.524 97.7048 94.2517 104.089C92.7951 105.548 92.3331 106.903 92.4575 108.097C92.613 109.589 94.0304 110.648 95.8207 110.461C96.517 110.389 103.564 108.548 104.659 96.8715L166.226 90.4541C166.524 90.423 166.645 90.6116 166.676 90.91C166.759 91.7057 164.608 96.1526 162.762 99.6629C162.505 100.092 162.426 100.301 162.437 100.401C162.447 100.5 162.547 100.49 162.547 100.49C162.745 100.469 163.033 100.338 163.411 100.098C166.438 98.2743 170.928 94.0862 175.582 93.4001C178.157 93.031 178.97 92.142 178.856 91.048C178.638 88.9593 174.763 85.5426 170.65 84.6643ZM152.346 114.523L121.712 117.716C121.432 115.03 121.012 111.958 120.877 110.665L120.815 110.068C120.597 107.979 121.063 107.629 122.273 106.698L150.321 103.775C151.017 103.702 151.299 104.477 151.31 104.577C151.492 105.362 151.585 106.257 151.689 107.252C151.896 109.241 152.056 111.738 152.346 114.523ZM108.425 78.9847C107.63 79.0676 107.242 79.2086 107.263 79.4075C107.284 79.6064 107.613 79.8737 108.251 80.2093C111.014 81.6306 115.423 84.3883 117.264 86.6095C118.534 88.1863 119.899 88.7478 120.993 88.6337C122.485 88.4782 123.544 87.0608 123.358 85.2705C122.735 79.3028 112.016 78.7109 108.425 78.9847Z" fill="black"/>
<path d="M260.906 236.516C260.838 236.303 260.9 235.908 260.993 235.315C261.519 231.956 264.149 223.562 264.613 220.598C264.706 220.005 264.669 219.594 264.571 219.579L264.472 219.563C264.259 219.631 263.87 220.178 263.289 221.301C258.086 230.608 256.149 232.633 254.766 232.416C254.173 232.324 248.997 229.185 246.41 218.557C250.138 214.788 253.45 210.448 256.329 205.636C256.863 204.808 257.32 204.475 258.506 204.661C260.284 204.939 261.266 204.486 261.39 203.696C261.638 202.115 254.921 197.824 254.328 197.731C254.031 197.685 253.97 198.08 253.908 198.475C253.308 201.013 250.725 205.871 245.316 212.616C244.491 205.604 244.627 197.629 245.371 189.648L264.043 192.572C265.723 192.835 266.294 192.418 266.371 191.925C266.48 191.233 264.338 187.456 260.998 185.516C260.801 185.485 260.619 185.355 260.421 185.324C259.334 185.154 256.993 187.824 256.635 188.173C256.261 188.62 255.424 188.793 255.128 188.746L245.643 187.261C246.105 182.374 246.764 177.517 247.507 172.775C248.126 168.823 248.828 164.986 249.5 161.346C250.264 157.113 250.452 157.851 252.218 156.913C253.003 156.428 253.491 155.898 253.599 155.206C253.847 153.625 251.76 152.084 245.697 150.729C245.005 150.621 244.906 150.606 244.891 150.704C244.875 150.803 244.943 151.016 244.995 151.328C245.682 155.99 244.552 166.441 244.362 168.942C244.185 172.66 243.08 179.066 242.284 186.735L225.39 184.089C229.384 180.565 232.349 177.79 234.27 175.864C235.101 175.083 235.064 174.672 236.379 174.676C238.089 174.741 238.775 174.242 238.852 173.748C239.069 172.364 232.451 168.089 231.759 167.981C231.562 167.95 231.614 168.261 231.407 168.938C230.73 171.969 227.396 179.039 224.402 183.934C219.364 183.145 216.727 182.53 207.595 180.087C207.425 181.174 209.217 184.593 210.897 184.856L210.996 184.871C216.393 185.312 218.795 185.485 224.031 186.305L242.11 189.137C241.305 197.513 240.921 207.069 242.373 215.9C233.879 224.894 222.517 231.516 208.768 232.703C206.813 232.903 205.634 233.325 205.587 233.621C205.556 233.819 205.837 233.964 206.43 234.057C209.789 234.583 228.676 234.201 243.445 221.331C247.018 235.353 255.078 240.765 258.042 241.23C259.623 241.477 260.948 240.774 261.211 239.094C261.319 238.402 261.245 237.581 260.906 236.516ZM230.719 192.718C230.522 192.687 230.423 192.671 230.21 192.739C229.784 192.875 228.678 194.119 228.174 194.748C227.816 195.097 227.26 195.415 226.766 195.337L218.369 194.022C216.89 192.475 212.649 189.179 211.859 189.055C211.76 189.04 211.646 189.123 211.615 189.321C211.599 189.419 211.667 189.632 211.621 189.929C211.755 193.594 210.798 201.643 210.613 202.828C209.901 207.373 208.208 217.533 206.931 223.103L206.885 223.399C206.653 224.881 207.35 225.598 208.338 225.752C209.623 225.954 211.275 225.099 211.538 223.419L212.311 218.48L224.76 220.429L224.636 221.22C224.357 222.998 225.237 223.844 226.324 224.014C227.509 224.2 229.229 223.558 229.57 221.385L229.601 221.187C229.945 217.699 230.871 209.847 231.443 206.192C232.047 202.339 232.498 201.397 233.822 200.694C234.394 200.277 235.969 199.916 236.154 198.731C236.448 196.854 232.004 192.919 230.719 192.718ZM199.586 198.267C199.221 198.008 198.842 197.847 198.545 197.8C198.348 197.769 198.233 197.853 198.135 197.837C197.708 197.973 196.421 199.087 195.917 199.717C195.543 200.164 195.003 200.383 194.509 200.306L188.384 199.347C186.405 197.114 181.562 194.432 181.463 194.417C181.364 194.401 181.25 194.484 181.219 194.682C181.204 194.781 181.272 194.994 181.225 195.29C181.344 199.054 180.637 207.446 179.987 211.595C179.43 215.152 178.805 218.495 177.037 225.911L176.99 226.207C176.774 227.59 177.57 228.322 178.558 228.477C179.842 228.678 181.593 227.839 181.825 226.357C182.166 224.184 182.407 221.995 182.732 219.92L193.402 221.591L192.969 224.357C192.706 226.037 193.684 226.899 194.771 227.069C196.154 227.286 197.791 226.53 198.069 224.751L198.1 224.554C198.717 218.678 199.039 214.68 199.565 211.321C200.169 207.468 200.293 206.678 202.028 205.937C202.683 205.635 204.356 205.29 204.542 204.104C204.681 203.215 204.441 202.165 199.586 198.267ZM237.755 160.721C237.557 160.69 237.375 160.56 237.178 160.529C236.19 160.374 233.484 162.785 233.126 163.134C232.752 163.581 232.03 163.67 231.733 163.624L230.054 163.361C230.255 162.077 230.564 160.101 230.787 159.326C231.656 155.717 230.986 156.118 234.015 154.872C234.981 154.517 235.865 154.048 235.957 153.455C236.221 151.776 228.222 149.207 226.74 148.975C226.641 148.96 226.527 149.043 226.496 149.24C226.48 149.339 226.465 149.438 226.517 149.75C226.785 151.917 226.064 157.169 225.683 160.247C225.605 160.741 225.534 161.843 225.41 162.634C222.348 162.154 219.612 161.523 212.555 159.406C212.4 160.394 214.276 163.927 215.956 164.19L216.054 164.205C222.6 164.42 227.54 165.194 228.528 165.349L241.371 167.36C242.952 167.608 243.622 167.207 243.715 166.614C243.823 165.922 241.839 163.081 237.755 160.721ZM193.804 219.022L183.135 217.351C183.723 213.597 184.31 209.843 185.028 205.907C185.375 204.341 185.134 203.291 186.999 202.369C187.228 202.202 187.441 202.134 187.654 202.067L195.656 203.32C195.755 203.335 196.15 203.397 195.996 204.385C195.806 206.886 195.482 208.961 195.141 211.134C194.785 213.407 194.414 215.778 193.804 219.022ZM206.68 158.789C206.596 158.675 206.399 158.644 206.201 158.613C205.114 158.443 202.337 161.955 201.818 162.684C201.445 163.132 200.805 163.335 200.608 163.304L196.854 162.716C192.803 162.082 188.684 161.234 181.362 158.873C181.191 159.96 183.484 164.064 184.67 164.249L184.768 164.265C191.116 164.449 192.317 164.536 196.269 165.155L210.298 167.352C211.681 167.569 212.138 167.236 212.216 166.742C212.339 165.951 210.087 160.942 206.68 158.789ZM226.752 209C226.272 212.062 225.762 215.323 225.23 218.074L212.683 216.108L214.106 207.019L226.752 209ZM227.108 206.728L214.462 204.747L215.298 199.412C215.638 197.238 215.971 197.696 217.883 196.477L227.269 197.947C228.059 198.07 228.117 198.99 228.102 199.089C228.052 200.701 227.603 203.566 227.108 206.728ZM208.015 145.739C207.932 145.624 207.734 145.593 207.536 145.563C206.845 145.454 204.467 147.713 203.314 149.254C202.941 149.701 202.187 149.988 201.99 149.957L198.927 149.478C198.631 149.431 194.132 148.423 188.489 146.324C188.257 147.806 190.133 151.339 191.516 151.556L191.615 151.571C196.039 151.758 197.256 151.746 197.75 151.824L211.285 153.943C212.569 154.145 213.057 153.614 213.165 152.922C213.398 151.44 210.944 147.716 208.015 145.739ZM202.442 170.98C202.359 170.866 202.161 170.835 201.964 170.804C201.371 170.711 199.237 172.705 197.97 174.329C197.695 174.792 197.056 174.995 196.858 174.964L194.487 174.593C194.29 174.562 190.863 173.823 185.22 171.724C184.941 173.503 187.16 176.786 188.247 176.956L188.345 176.971C190.96 177.077 193.014 176.893 193.211 176.924L205.264 178.811C206.648 179.028 207.151 178.398 207.244 177.806C207.569 175.731 204.362 172.293 202.442 170.98ZM200.462 183.626C200.378 183.512 200.181 183.481 199.983 183.45C198.995 183.295 196.768 185.882 196.005 186.876C195.73 187.339 195.091 187.542 194.893 187.511L192.423 187.125C192.226 187.094 188.898 186.37 183.254 184.272C183.022 185.753 184.997 189.302 186.281 189.503L186.38 189.518C190.014 189.581 191.049 189.44 191.246 189.471L203.299 191.358C204.682 191.575 205.186 190.945 205.279 190.353C205.635 188.08 201.554 184.405 200.462 183.626ZM253.377 164.382C253.179 164.351 253.08 164.336 253.065 164.434C253.049 164.533 253.132 164.648 253.481 165.006C256.021 167.529 258.444 171.451 259.461 174.647C260.057 176.664 261.118 177.64 262.205 177.81C263.588 178.027 264.876 176.912 265.155 175.134C265.944 170.095 258.02 165.109 253.377 164.382ZM215.424 166.94C215.127 166.894 215.013 166.977 214.997 167.076C214.951 167.372 215.102 167.7 215.337 168.141C216.707 170.38 217.829 174.2 217.983 176.451C218.152 178.603 219.016 179.548 220.103 179.718C221.387 179.919 223.002 178.654 223.312 176.678C224.116 171.541 216.51 167.111 215.424 166.94Z" fill="black"/>
<path d="M173.811 244.179C174.438 244 175.055 243.773 175.692 243.644C185.414 241.773 191.53 247.521 192.982 254.676C194.165 260.507 193.072 269.453 179.952 276.197C178.757 276.848 178.053 277.399 178.102 277.644C178.122 277.742 178.387 277.79 178.828 277.7C182.258 277.004 198.75 269.525 195.677 254.384C194.066 246.445 186.968 239.876 175.894 242.123C162.762 244.788 158.68 257.861 160.182 265.261C160.54 267.025 161.201 268.523 162.204 269.442C164.907 271.954 166.21 274.853 168.464 274.396C172.286 273.62 179.293 261.637 176.926 249.975C176.3 246.888 175.175 244.616 173.811 244.179ZM171 245.412C171.558 245.146 171.931 244.968 172.323 244.889C173.401 244.67 174.432 245.226 175.207 249.048C177.176 258.75 171.286 270.201 168.297 270.807C166.141 271.245 163.014 268.155 162.179 264.039C160.876 257.62 164.392 249.049 171 245.412Z" fill="black"/>
<path d="M239.827 284.021C239.371 282.688 236.274 277.967 232.323 277.528C227.552 276.999 224.463 283.07 222.791 289.977C216.223 295.436 211.436 303.884 210.029 311.802C209.756 313.583 209.275 314.511 208.455 314.42C207.785 314.345 203.32 311.736 204.082 304.879C204.28 303.09 204.785 301.259 205.299 299.354C206.226 295.76 207.104 293.291 207.369 290.906C207.849 286.583 205.422 284.653 203.931 284.487C202.813 284.363 201.223 285.092 201.165 285.614C201.124 285.987 201.853 286.219 202.474 286.74C203.526 287.461 203.576 290.409 203.228 293.54C203.029 295.329 202.673 297.176 202.342 298.799C202.052 300.05 201.92 301.243 201.787 302.435C200.124 317.418 211.098 320.524 211.321 320.548C211.843 320.606 213.442 320.482 213.566 319.364C213.632 318.768 213.326 318.13 213.085 317.575C212.53 316.457 212.679 315.115 213.011 312.133C213.814 304.903 217.217 298.037 222.145 293.075C221.921 294.409 221.689 295.817 221.532 297.233C220.837 303.494 220.639 317.508 229.162 322.982C226.744 326.411 223.696 329.393 220.052 331.63C217.791 332.963 216.722 333.75 216.689 334.048C216.681 334.123 216.756 334.131 216.83 334.139C217.576 334.222 225.468 331.778 231.729 324.324C232.814 324.746 233.916 325.019 235.109 325.152C245.172 326.269 257.222 317.647 258.588 305.347C260.078 291.93 248.921 285.031 240.349 284.079L239.827 284.021ZM240.457 285.827C246.685 286.82 256.218 292.029 254.886 304.031C253.785 313.945 245.122 322.642 235.879 321.615C235.208 321.541 234.545 321.392 233.957 321.251C238.214 314.857 240.342 307.245 241.095 300.462C241.758 294.498 241.36 289.247 240.457 285.827ZM225.151 290.466C228.779 287.699 232.754 285.877 237.003 285.67C237.898 288.486 238.171 293.496 237.526 299.311C236.797 305.87 234.818 313.499 231.075 320.025C221.873 314.551 222.915 299.726 223.362 295.701C223.528 294.21 223.768 292.727 224.074 291.327L225.151 290.466ZM236.282 284.005C232.166 284.378 228.29 285.985 224.853 288.395C224.977 287.956 227.884 279.45 231.685 279.872C233.176 280.038 234.675 281.487 236.282 284.005Z" fill="black"/>
<path d="M234.579 361.691C234.382 362.415 233.606 362.981 232.198 363.297C230.37 363.732 228.344 364.035 226.568 364.562C223.766 365.431 220.728 367.169 219.663 371.076C219.565 371.438 219.558 371.747 219.46 372.109C219.23 373.523 219.026 374.556 218.77 375.497C218.553 376.293 218.284 376.997 217.955 377.918C216.345 381.832 214.031 387.188 212.947 391.168C210.523 400.068 214.957 402.908 215.826 403.145C216.622 403.362 217.648 403.019 219.18 401.96C223.744 398.617 225.454 396.906 229.545 395.3C231.472 394.503 233.419 394.489 235.156 394.962C239.859 396.243 242.933 400.656 241.71 405.143C240.567 409.34 234.459 416.926 216.856 416.485C214.311 416.413 213.199 416.499 213.159 416.644C213.14 416.716 213.357 416.775 213.719 416.874C225.731 420.146 242.681 416.989 245.638 406.135C247.55 399.116 240.819 393.862 236.984 392.817C234.378 392.108 231.32 392.207 228.807 393.155C224.683 394.597 222.119 396.308 220.066 396.993C218.712 397.402 217.705 397.672 216.982 397.474C216.041 397.218 214.33 396.364 216.025 390.14C216.755 387.463 218.003 384.305 219.502 381.371C221.06 378.219 221.948 376.673 222.381 375.081C222.638 374.141 222.749 373.161 222.795 371.851C222.841 371.398 222.926 370.799 223.084 370.22C224.582 364.72 229.272 365.765 231.153 366.277C232.673 366.691 234.298 367.289 235.14 367.907C235.785 368.394 236.482 368.972 237.278 369.189C238.509 369.524 240.133 368.412 240.586 366.748C241.848 362.116 234.183 356.298 233.821 356.199C233.604 356.14 233.492 356.265 233.472 356.337C233.393 356.627 233.67 357.324 233.703 357.488C233.887 358.238 234.835 359.895 234.638 361.474L234.579 361.691Z" fill="black"/>
<path d="M195.544 454.032C194.072 454.329 189.272 454.931 184.766 456.078C171.029 459.574 172.679 466.97 172.938 467.988C174.047 472.349 179.888 477.054 189.773 474.538C196.314 472.874 197.234 471.015 196.938 469.852C196.68 468.834 195.349 468.167 193.895 468.537C193.604 468.611 193.332 468.757 192.987 468.922C191.971 469.491 189.901 470.482 187.576 471.073C179.871 473.034 175.944 469.157 175.389 466.977C175.019 465.523 175.506 460.137 183.283 458.158C188.444 456.845 195.338 456.871 196.67 457.847C197.455 458.499 198.002 458.824 198.801 458.621C200.328 458.232 202.375 456.241 201.45 452.607C201.099 451.226 200.365 449.864 199.032 448.578C196.366 446.007 194.027 443.506 191.906 440.95C196.006 438.204 199.467 435.079 199.004 433.262C198.82 432.536 197.872 432.157 196.636 432.472C196.564 432.49 194.49 432.554 191.613 431.893C190.139 431.571 189.193 431.503 188.902 431.577C188.829 431.595 188.756 431.614 188.775 431.686C188.812 431.832 189.377 432.229 190.489 432.643C192.639 433.489 193.315 434.323 193.482 434.977C193.63 435.559 193.268 435.96 193.268 435.96C192.635 436.818 191.474 437.732 190.096 438.702C188.103 436.346 186.183 433.971 184.135 431.396C185.314 430.555 188.977 427.92 188.515 426.103C188.423 425.739 187.873 424.796 186.928 425.036C186.201 425.221 184.987 426.227 183.865 427.596C183.448 428.089 182.887 428.619 182.234 429.094C172.544 417.475 170.117 415.539 166.337 416.5C165.756 416.648 163.032 417.806 163.365 419.114C163.439 419.405 163.567 419.604 163.876 419.603C164.622 419.491 165.783 418.886 169.066 420.836C173.533 423.492 177.221 426.732 180.51 430.229C179.332 431.071 177.969 431.495 177.315 431.661C173.317 432.679 169.345 431.058 166.869 430.45C166.541 430.379 165.776 430.109 165.412 430.202C165.267 430.239 165.14 430.348 165.177 430.494C165.233 430.712 168.914 436.663 177.999 434.351C179.453 433.981 180.433 433.577 182.466 432.44C184.55 434.851 186.507 437.371 188.372 439.837C184.562 442.2 181.658 443.558 178.169 444.446C174.244 445.444 170.696 445.186 166.503 443.003C165.883 442.696 165.464 442.571 165.246 442.626C165.028 442.682 164.992 442.846 165.066 443.136C165.066 443.136 167.898 450.31 177.201 447.942C183.597 446.315 189.53 442.561 190.129 442.176C192.122 444.842 194.098 447.435 196.182 449.846C196.749 450.553 197.152 451.224 197.299 451.805C197.558 452.823 197.143 453.625 195.69 453.995L195.544 454.032ZM201.436 418.791C202.381 418.55 202.977 417.547 202.699 416.457C201.793 412.896 195.737 413.121 192.103 414.046C191.521 414.194 190.067 414.564 190.141 414.854C190.178 415 190.907 415.124 191.398 415.231C193.692 415.731 196.697 416.591 199.306 418.327C200.126 418.815 200.854 418.939 201.436 418.791ZM194.583 424.404C195.528 424.164 196.106 423.088 195.829 421.998C194.996 418.727 189.028 418.388 185.031 419.405C184.159 419.627 183.378 419.903 183.433 420.121C183.47 420.267 184.126 420.41 184.617 420.517C186.857 421.108 189.88 422.041 192.435 423.867C193.201 424.446 193.929 424.57 194.583 424.404Z" fill="black"/>
</svg>
