<svg width="390" height="556" viewBox="0 0 390 556" fill="none" xmlns="http://www.w3.org/2000/svg">
<path d="M127.288 140.667C125.495 128.286 123.839 115.288 122.854 105.839C121.402 91.9146 121.392 91.8152 123.257 90.4143C123.812 89.9542 125.42 88.9823 125.285 87.6893C125.026 85.2028 118.47 83.071 117.674 83.1539C117.475 83.1747 117.276 83.1954 117.187 83.3052C116.711 83.556 115.762 85.0625 115.436 85.8002C115.19 86.3286 114.535 86.799 114.038 86.8508L105.484 87.7424L105.055 87.4855C103.889 86.9033 97.7093 84.5312 96.9136 84.6141C96.8141 84.6245 96.8245 84.7239 96.8349 84.8234C96.8452 84.9229 96.866 85.1218 96.9965 85.4098C98.3582 89.7922 99.3389 98.2361 100.884 113.056C102.055 124.295 103.511 139.224 104.029 149.023L104.05 149.222C104.226 150.913 105.294 151.506 106.388 151.392C107.88 151.236 109.357 149.976 109.17 148.186C108.828 144.904 108.376 141.532 108.013 138.051L121.441 136.652L122.011 142.122C122.208 144.012 123.275 144.604 124.469 144.48C125.96 144.324 127.517 142.855 127.309 140.866L127.288 140.667ZM179.752 103.83C181.642 103.633 182.166 102.874 182.104 102.277C181.928 100.586 175.462 96.4344 174.227 96.161C174.028 96.1817 173.72 96.1133 173.521 96.1341C172.626 96.2274 172.536 96.3372 169.673 101.663C169.427 102.191 168.552 102.483 168.353 102.504L153.235 104.08L151.825 90.5532L172.314 88.4176C173.906 88.2517 174.341 87.6031 174.279 87.0063C174.144 85.7133 169.521 81.8719 167.129 81.1158C166.93 81.1365 166.622 81.0681 166.423 81.0889C165.428 81.1926 164.836 82.2597 162.842 86.2881C162.596 86.8165 161.831 87.1978 161.632 87.2185L151.587 88.2656C150.631 76.1997 150.631 76.1997 151.971 75.5573C153.401 74.805 154.114 73.9264 154.031 73.1307C153.792 70.8431 145.653 70.8872 144.748 70.881C143.753 70.9847 143.763 71.0841 143.774 71.1836C143.784 71.2831 143.805 71.482 143.925 71.6705C145.695 76.111 146.551 83.3613 146.841 86.1462L147.111 88.7322C142.237 89.2402 136.537 89.5327 127.67 89.351C127.784 90.445 130.335 93.6981 132.026 93.5219L132.126 93.5115C139.801 91.9072 142.675 91.507 147.25 91.0301C147.789 96.2021 148.173 99.8822 148.561 104.567L148.163 104.609C143.19 105.127 138.604 105.504 124.953 105.721C125.067 106.815 127.728 110.157 129.419 109.981L129.518 109.971C139.093 108.269 143.349 107.624 148.123 107.126L179.752 103.83ZM182.75 121.011C184.639 120.814 185.164 120.056 185.091 119.36C184.956 118.067 179.506 114.01 176.827 113.384C176.628 113.405 176.419 113.326 176.12 113.357C175.225 113.451 174.769 113.9 172.163 118.797C171.916 119.325 171.152 119.707 170.953 119.727L166.079 120.235C165.955 119.042 165.961 118.136 165.878 117.341C165.569 112.446 166.176 112.484 167.884 111.501C168.46 111.24 168.607 110.722 168.565 110.324C168.337 108.136 159.303 108.274 159.203 108.284C158.905 108.315 158.826 108.524 158.847 108.723C158.857 108.823 158.878 109.022 159.008 109.31C160.548 113.472 161.156 118.336 161.405 120.723L149.37 121.977C144.397 122.496 140.398 122.711 126.746 122.928C126.86 124.022 129.532 127.463 131.223 127.287L131.322 127.277C140.897 125.575 144.556 124.992 149.331 124.495L161.763 123.199C162.153 125.973 162.646 129.743 163.154 134.616C163.517 138.097 163.963 142.374 164.272 147.268C164.525 150.66 162.147 152.919 155.98 153.562C153.294 153.842 149.871 153.797 145.711 153.426C145.103 153.389 144.695 153.331 144.397 153.362C144.297 153.372 144.208 153.482 144.208 153.482C144.281 154.178 156.076 157.373 157.393 158.442C158.173 159.165 158.314 159.552 159.109 159.469C161.297 159.241 170.199 155.901 169.287 147.148C169.069 145.059 167.836 138.049 167.742 137.154C167.525 135.066 167.166 132.589 166.907 130.103C166.637 127.517 166.467 124.92 166.239 122.732L182.75 121.011ZM107.744 135.465C106.935 127.707 106.037 120.059 105.343 113.395L119.069 111.965C119.815 119.126 120.535 126.994 121.271 134.055L107.744 135.465ZM105.073 110.809C103.176 92.6079 103.433 92.179 104.732 91.1387L105.565 90.4486L115.611 89.4015C116.506 89.3082 116.599 90.2034 116.599 90.2034C117.047 92.5697 117.835 100.129 118.799 109.379L105.073 110.809ZM150.374 143.187C151.866 143.032 152.914 141.515 152.728 139.725C152.199 134.652 142.905 132.303 136.341 132.987C135.943 133.029 135.744 133.049 135.755 133.149C135.765 133.248 136.194 133.505 136.942 133.93C140.144 135.708 144.763 138.544 146.733 141.053C148.014 142.73 149.28 143.301 150.374 143.187Z" fill="black"/>
<path d="M255.876 187.383C254.103 199.352 252.181 212.918 250.85 221.415C249.163 232.184 248.854 234.159 242.63 233.185C239.666 232.72 235.822 231.41 230.679 229.997C230.102 229.805 229.608 229.728 229.41 229.697C229.114 229.651 229.015 229.635 228.999 229.734C228.907 230.327 239.544 235.434 240.244 238.074C240.5 239.026 241.031 239.514 241.822 239.637C245.378 240.194 253.122 238.573 254.474 230.586C254.676 229.302 255.54 221.846 255.694 220.858C256.518 214.306 259.589 192.114 261.832 177.789C262.374 174.331 262.838 171.367 263.277 169.209C263.748 166.853 263.643 166.23 266.064 164.989C266.62 164.672 267.997 164.28 268.136 163.391C268.477 161.217 261.781 157.436 261.485 157.389C260.793 157.281 259.422 158.281 258.949 158.713C258.461 159.244 257.853 159.25 257.458 159.188L243.133 156.944L242.617 156.357C240.972 154.582 235.437 151.791 234.844 151.699C234.647 151.668 234.647 151.668 234.616 151.865C234.6 151.964 234.554 152.26 234.606 152.572C234.842 158.176 233.957 165.123 233.214 169.865C232.688 173.224 231.831 178.05 230.201 184.576L230.139 184.971C229.876 186.651 230.855 187.513 232.04 187.698C234.411 188.07 235.434 186.712 235.635 185.427L235.666 185.23C235.712 184.933 235.676 184.523 235.722 184.226L255.876 187.383ZM186.071 227.869C186.796 221.302 189.033 206.369 191.385 191.352L193.536 177.619L212.406 180.574C212.313 181.167 212.137 181.646 212.06 182.14L212.029 182.337C211.781 183.918 212.578 184.65 213.664 184.82C215.64 185.13 217.234 183.355 217.435 182.071C219.04 167.949 220.045 161.527 220.061 161.428C220.308 159.848 220.5 159.27 222.594 158.181C223.15 157.863 224.527 157.472 224.666 156.583C224.976 154.607 219.299 150.782 218.509 150.658C217.817 150.55 216.949 150.92 215.874 151.967C215.386 152.497 214.877 152.519 214.482 152.457L201.342 150.399C201.175 150.171 201.024 149.843 200.842 149.713C199.895 148.654 193.922 144.783 193.032 144.644C192.934 144.629 192.819 144.712 192.773 145.008C192.757 145.107 192.711 145.403 192.763 145.715C192.95 149.692 192.133 156.852 191.931 158.136C191.359 161.792 190.839 165.759 190.22 169.711C187.079 189.766 183.026 212.412 179.868 227.404L179.822 227.7C179.497 229.775 180.46 230.736 181.744 230.937C183.127 231.153 185.684 230.339 186.056 227.968L186.071 227.869ZM232.698 222.924C233.156 219.352 234.24 209.198 234.998 204.357C235.586 200.602 236.059 200.17 237.467 199.581C237.992 199.461 239.764 199.131 239.935 198.044C240.198 196.365 234.916 192.602 234.027 192.463C233.533 192.386 232.712 192.46 231.606 193.703C231.232 194.151 230.479 194.438 229.985 194.36L213.683 191.807C211.856 189.902 207.627 187.822 207.133 187.745C206.936 187.714 206.821 187.797 206.79 187.995C206.759 188.193 206.827 188.406 206.796 188.603C207.014 192.382 206.185 198.326 205.999 199.511C205.287 204.056 203.322 216.603 202.116 221.07L202.054 221.465C201.822 222.947 202.504 223.763 203.492 223.917C204.777 224.118 206.543 223.18 206.822 221.402L207.27 218.537L228.017 221.786L227.801 223.17C227.507 225.047 228.272 225.976 229.26 226.131C230.643 226.348 232.342 225.197 232.682 223.023L232.698 222.924ZM256.18 184.799L236.025 181.642C236.515 177.872 237.087 174.217 237.567 171.154L257.622 174.295L256.18 184.799ZM230.081 209.255C229.54 212.713 228.983 216.269 228.404 219.316L207.657 216.067C208.152 212.906 208.626 209.235 209.137 205.975L230.081 209.255ZM214.646 167.564C214.074 171.22 213.486 174.974 212.907 178.021L193.938 175.05C194.526 171.296 195.182 167.755 195.776 164.609L214.646 167.564ZM230.966 197.146C231.46 197.223 231.617 198.159 231.601 198.258C231.443 200.561 230.979 203.525 230.468 206.785L209.523 203.505L210.39 197.972C211.015 194.628 210.891 195.419 213.136 194.657L213.676 194.438L230.966 197.146ZM258.226 162.041C259.214 162.196 259.312 162.211 258.025 171.727L237.969 168.586C238.402 165.819 238.795 163.958 238.903 163.266C239.497 160.12 239.497 160.12 241.628 159.442L258.226 162.041ZM215.25 155.31C216.534 155.511 216.255 157.29 215.049 164.996L196.179 162.04C197.432 154.038 197.806 153.59 199.313 153.017L199.739 152.881L215.25 155.31Z" fill="black"/>
<path d="M174.448 244.822C175.075 244.643 175.692 244.416 176.329 244.287C186.051 242.416 192.167 248.164 193.618 255.319C194.802 261.15 193.709 270.096 180.588 276.84C179.394 277.491 178.689 278.042 178.739 278.287C178.759 278.385 179.024 278.433 179.465 278.344C182.895 277.647 199.387 270.168 196.314 255.027C194.703 247.088 187.605 240.519 176.531 242.766C163.398 245.431 159.317 258.504 160.818 265.904C161.176 267.668 161.838 269.166 162.84 270.085C165.544 272.597 166.847 275.496 169.101 275.039C172.923 274.263 179.929 262.28 177.563 250.618C176.936 247.531 175.812 245.259 174.448 244.822ZM171.637 246.055C172.195 245.789 172.567 245.612 172.959 245.532C174.037 245.313 175.068 245.869 175.844 249.691C177.813 259.394 171.923 270.844 168.934 271.45C166.778 271.888 163.651 268.798 162.815 264.682C161.513 258.263 165.028 249.692 171.637 246.055Z" fill="black"/>
<path d="M240.465 284.664C240.009 283.331 236.911 278.61 232.961 278.172C228.19 277.642 225.101 283.713 223.428 290.621C216.861 296.079 212.074 304.527 210.667 312.445C210.393 314.226 209.913 315.154 209.093 315.063C208.422 314.988 203.958 312.38 204.719 305.522C204.918 303.733 205.423 301.902 205.937 299.997C206.864 296.403 207.742 293.934 208.007 291.549C208.487 287.226 206.06 285.296 204.569 285.131C203.451 285.006 201.861 285.735 201.803 286.257C201.761 286.63 202.49 286.862 203.111 287.383C204.163 288.104 204.213 291.052 203.866 294.183C203.667 295.972 203.311 297.819 202.98 299.443C202.69 300.693 202.557 301.886 202.425 303.079C200.761 318.061 211.736 321.167 211.959 321.191C212.481 321.249 214.079 321.125 214.204 320.007C214.27 319.411 213.963 318.773 213.723 318.218C213.168 317.1 213.317 315.758 213.648 312.776C214.451 305.546 217.855 298.68 222.783 293.718C222.559 295.052 222.327 296.46 222.17 297.876C221.475 304.137 221.277 318.151 229.8 323.625C227.381 327.054 224.334 330.036 220.69 332.273C218.429 333.606 217.36 334.393 217.327 334.691C217.319 334.766 217.393 334.774 217.468 334.782C218.213 334.865 226.106 332.421 232.367 324.967C233.452 325.389 234.554 325.663 235.746 325.795C245.81 326.912 257.86 318.29 259.226 305.99C260.716 292.573 249.559 285.674 240.987 284.722L240.465 284.664ZM241.094 286.47C247.323 287.463 256.856 292.672 255.523 304.674C254.422 314.588 245.76 323.285 236.516 322.258C235.846 322.184 235.183 322.035 234.595 321.894C238.852 315.5 240.98 307.888 241.733 301.105C242.395 295.141 241.997 289.891 241.094 286.47ZM225.789 291.109C229.416 288.342 233.392 286.52 237.641 286.313C238.535 289.129 238.809 294.14 238.163 299.954C237.435 306.513 235.456 314.142 231.713 320.668C222.511 315.194 223.553 300.369 224 296.344C224.166 294.853 224.406 293.37 224.712 291.97L225.789 291.109ZM236.92 284.648C232.804 285.021 228.928 286.628 225.491 289.038C225.615 288.599 228.521 280.093 232.323 280.515C233.814 280.681 235.313 282.13 236.92 284.648Z" fill="black"/>
<path d="M235.216 362.334C235.019 363.058 234.243 363.624 232.835 363.94C231.006 364.375 228.981 364.678 227.205 365.205C224.403 366.074 221.364 367.812 220.3 371.719C220.201 372.081 220.195 372.39 220.096 372.752C219.867 374.167 219.663 375.199 219.407 376.14C219.19 376.936 218.921 377.64 218.592 378.561C216.982 382.475 214.668 387.831 213.584 391.811C211.16 400.711 215.594 403.552 216.462 403.788C217.258 404.005 218.284 403.662 219.817 402.603C224.381 399.26 226.09 397.549 230.181 395.943C232.108 395.146 234.056 395.132 235.792 395.605C240.496 396.887 243.569 401.299 242.347 405.786C241.204 409.983 235.096 417.569 217.493 417.128C214.947 417.056 213.836 417.142 213.796 417.287C213.776 417.359 213.994 417.418 214.355 417.517C226.368 420.789 243.318 417.632 246.275 406.778C248.186 399.759 241.456 394.505 237.62 393.46C235.015 392.751 231.956 392.85 229.444 393.799C225.32 395.24 222.755 396.952 220.703 397.636C219.348 398.045 218.342 398.315 217.618 398.118C216.678 397.861 214.967 397.007 216.662 390.783C217.391 388.106 218.64 384.948 220.139 382.014C221.697 378.863 222.584 377.316 223.018 375.724C223.274 374.784 223.386 373.804 223.431 372.495C223.477 372.041 223.563 371.442 223.72 370.863C225.218 365.363 229.909 366.408 231.79 366.92C233.31 367.334 234.935 367.932 235.777 368.55C236.422 369.037 237.119 369.616 237.915 369.832C239.145 370.167 240.77 369.055 241.223 367.391C242.484 362.76 234.819 356.941 234.457 356.842C234.24 356.783 234.129 356.908 234.109 356.98C234.03 357.27 234.307 357.967 234.339 358.131C234.524 358.881 235.472 360.539 235.275 362.117L235.216 362.334Z" fill="black"/>
<path d="M196.18 454.675C194.708 454.972 189.908 455.574 185.402 456.721C171.665 460.217 173.314 467.613 173.573 468.631C174.683 472.992 180.524 477.697 190.409 475.182C196.95 473.517 197.87 471.658 197.574 470.495C197.315 469.477 195.985 468.81 194.531 469.18C194.24 469.254 193.968 469.4 193.623 469.565C192.607 470.134 190.537 471.125 188.211 471.716C180.507 473.677 176.58 469.801 176.025 467.62C175.655 466.166 176.142 460.78 183.919 458.801C189.079 457.488 195.974 457.514 197.306 458.49C198.091 459.142 198.638 459.467 199.437 459.264C200.964 458.875 203.011 456.884 202.086 453.25C201.735 451.869 201.001 450.507 199.668 449.222C197.001 446.65 194.663 444.149 192.542 441.593C196.641 438.848 200.103 435.723 199.64 433.905C199.455 433.179 198.508 432.801 197.272 433.115C197.199 433.133 195.126 433.197 192.249 432.536C190.774 432.214 189.828 432.146 189.538 432.22C189.465 432.238 189.392 432.257 189.411 432.329C189.448 432.475 190.013 432.873 191.125 433.286C193.275 434.132 193.951 434.966 194.118 435.62C194.265 436.202 193.903 436.603 193.903 436.603C193.27 437.461 192.11 438.375 190.732 439.345C188.739 436.989 186.819 434.614 184.771 432.04C185.95 431.198 189.613 428.563 189.151 426.746C189.058 426.383 188.509 425.439 187.564 425.679C186.837 425.864 185.622 426.87 184.5 428.239C184.084 428.732 183.522 429.262 182.869 429.737C173.18 418.118 170.752 416.182 166.973 417.143C166.391 417.291 163.668 418.449 164.001 419.757C164.075 420.048 164.203 420.247 164.512 420.246C165.257 420.134 166.419 419.529 169.701 421.479C174.169 424.135 177.857 427.375 181.146 430.872C179.967 431.714 178.605 432.138 177.951 432.305C173.953 433.322 169.981 431.701 167.504 431.093C167.177 431.022 166.411 430.752 166.048 430.845C165.903 430.882 165.776 430.991 165.813 431.137C165.868 431.355 169.549 437.306 178.635 434.994C180.089 434.624 181.069 434.22 183.102 433.083C185.186 435.494 187.142 438.014 189.008 440.48C185.198 442.843 182.293 444.201 178.805 445.089C174.88 446.087 171.331 445.829 167.138 443.646C166.519 443.339 166.1 443.214 165.882 443.269C165.664 443.325 165.628 443.489 165.702 443.779C165.702 443.779 168.533 450.953 177.837 448.585C184.233 446.958 190.166 443.204 190.764 442.819C192.758 445.485 194.734 448.078 196.817 450.489C197.384 451.196 197.787 451.867 197.935 452.449C198.194 453.466 197.779 454.268 196.325 454.638L196.18 454.675ZM202.072 419.434C203.017 419.193 203.613 418.191 203.335 417.1C202.429 413.539 196.373 413.764 192.738 414.689C192.157 414.837 190.703 415.207 190.777 415.498C190.814 415.643 191.542 415.767 192.034 415.874C194.328 416.374 197.333 417.235 199.941 418.97C200.762 419.458 201.49 419.582 202.072 419.434ZM195.219 425.047C196.164 424.807 196.742 423.731 196.464 422.641C195.632 419.37 189.664 419.031 185.667 420.048C184.794 420.27 184.013 420.546 184.069 420.764C184.106 420.91 184.761 421.053 185.253 421.16C187.493 421.751 190.516 422.684 193.071 424.51C193.837 425.089 194.565 425.213 195.219 425.047Z" fill="black"/>
</svg>
