<svg width="1403" height="861" viewBox="0 0 1403 861" fill="none" xmlns="http://www.w3.org/2000/svg">
<path d="M226.703 396.425C221.627 356.716 217.022 315.038 214.376 284.754C210.477 240.124 210.449 239.805 216.49 235.423C218.292 233.98 223.488 230.957 223.126 226.812C222.43 218.843 201.567 211.671 199.016 211.894C198.379 211.95 197.741 212.006 197.45 212.352C195.912 213.129 192.795 217.898 191.715 220.241C190.898 221.919 188.778 223.389 187.184 223.528L159.768 225.924L158.41 225.079C154.708 223.153 135.064 215.233 132.514 215.456C132.195 215.484 132.223 215.803 132.251 216.121C132.279 216.44 132.334 217.078 132.737 218.006C136.859 232.101 139.545 259.17 143.695 306.669C146.843 342.692 150.702 390.537 151.837 421.918L151.893 422.555C152.366 427.975 155.749 429.928 159.256 429.621C164.038 429.203 168.832 425.251 168.331 419.513C167.411 408.993 166.146 398.182 165.171 387.025L208.207 383.265L209.739 400.798C210.268 406.855 213.651 408.808 217.476 408.474C222.258 408.056 227.315 403.438 226.758 397.062L226.703 396.425ZM396.533 281.367C402.59 280.837 404.307 278.439 404.14 276.526C403.667 271.107 383.203 257.476 379.266 256.535C378.628 256.591 377.644 256.356 377.006 256.411C374.137 256.662 373.846 257.009 364.4 273.895C363.583 275.572 360.77 276.461 360.132 276.516L311.677 280.75L307.889 237.395L373.559 231.657C378.659 231.212 380.086 229.16 379.919 227.247C379.557 223.103 364.97 210.565 357.36 208.018C356.722 208.073 355.738 207.838 355.1 207.894C351.913 208.172 349.96 211.555 343.367 224.337C342.55 226.015 340.083 227.194 339.446 227.25L307.248 230.063C304.835 191.406 304.835 191.406 309.158 189.422C313.773 187.092 316.101 184.319 315.878 181.769C315.237 174.436 289.193 174.142 286.296 174.074C283.108 174.353 283.136 174.671 283.164 174.99C283.191 175.309 283.247 175.947 283.622 176.556C289.047 190.858 291.399 214.102 292.179 223.028L292.903 231.316C277.283 232.681 259.028 233.312 230.669 232.257C230.975 235.763 238.963 246.308 244.383 245.834L244.701 245.807C269.344 241.084 278.561 239.957 293.225 238.676C294.673 255.253 295.704 267.048 296.694 282.059L295.419 282.17C279.48 283.563 264.788 284.525 221.098 284.488C221.405 287.994 229.74 298.83 235.159 298.357L235.478 298.329C266.205 293.396 279.857 291.56 295.159 290.223L396.533 281.367ZM405.204 336.501C411.261 335.972 412.979 333.573 412.784 331.342C412.422 327.197 395.201 313.926 386.662 311.781C386.025 311.837 385.359 311.574 384.403 311.657C381.534 311.908 380.051 313.322 371.45 328.85C370.633 330.527 368.166 331.706 367.529 331.762L351.908 333.127C351.574 329.302 351.642 326.405 351.419 323.854C350.692 308.178 352.633 308.33 358.148 305.278C360.005 304.473 360.503 302.824 360.392 301.549C359.779 294.535 330.866 294.492 330.547 294.52C329.591 294.603 329.328 295.269 329.383 295.906C329.411 296.225 329.467 296.863 329.869 297.791C334.573 311.192 336.257 326.785 336.925 334.436L298.352 337.806C282.413 339.199 269.606 339.675 225.917 339.638C226.223 343.144 234.586 354.299 240.005 353.825L240.324 353.797C271.051 348.864 282.791 347.196 298.092 345.859L337.941 342.378C339.039 351.276 340.416 363.362 341.781 378.982C342.756 390.14 343.954 403.848 344.681 419.524C345.309 430.39 337.578 437.49 317.813 439.217C309.206 439.969 298.255 439.641 284.962 438.233C283.022 438.081 281.719 437.874 280.763 437.957C280.444 437.985 280.153 438.332 280.153 438.332C280.348 440.563 317.915 451.415 322.074 454.906C324.529 457.261 324.959 458.508 327.509 458.286C334.523 457.673 363.182 447.46 360.731 419.406C360.147 412.712 356.575 390.217 356.324 387.348C355.74 380.654 354.724 372.712 354.028 364.742C353.304 356.454 352.899 348.138 352.286 341.124L405.204 336.501ZM164.447 378.736C162.274 353.871 159.811 329.352 157.945 307.994L201.937 304.15C203.942 327.103 205.824 352.315 207.802 374.948L164.447 378.736ZM157.221 299.705C152.124 241.368 152.969 240.009 157.181 236.75L159.883 234.586L192.08 231.773C194.949 231.523 195.2 234.392 195.2 234.392C196.506 241.987 198.623 266.215 201.213 295.862L157.221 299.705ZM300.432 405.723C305.213 405.305 308.649 400.508 308.148 394.77C306.727 378.512 277.117 370.498 256.077 372.337C254.802 372.448 254.165 372.504 254.193 372.823C254.22 373.141 255.579 373.986 257.95 375.385C268.098 381.244 282.725 390.566 288.897 398.7C292.905 404.132 296.925 406.029 300.432 405.723Z" fill="black"/>
<path d="M631.967 418.248C627.056 452.749 621.743 491.85 618.05 516.341C613.369 547.382 612.51 553.078 594.569 550.373C586.026 549.084 574.935 545.373 560.099 541.389C558.434 540.846 557.01 540.632 556.44 540.546C555.586 540.417 555.301 540.374 555.258 540.659C555 542.367 585.721 556.902 587.78 564.494C588.532 567.229 590.069 568.626 592.348 568.969C602.6 570.515 624.876 565.719 628.639 542.695C629.197 538.992 631.563 517.505 631.993 514.657C634.257 495.776 642.737 431.813 648.963 390.52C650.466 380.553 651.754 372.009 652.984 365.787C654.299 358.995 653.987 357.201 660.939 353.589C662.535 352.664 666.495 351.514 666.881 348.951C667.826 342.686 648.481 331.905 647.627 331.776C645.633 331.475 641.701 334.378 640.347 335.63C638.95 337.167 637.199 337.194 636.059 337.022L594.766 330.796L593.272 329.114C588.506 324.026 572.519 316.082 570.811 315.824C570.241 315.739 570.241 315.739 570.155 316.308C570.112 316.593 569.983 317.447 570.139 318.345C570.91 334.48 568.474 354.5 566.413 368.17C564.953 377.852 562.564 391.764 557.978 410.586L557.806 411.725C557.076 416.567 559.909 419.033 563.326 419.548C570.161 420.578 573.083 416.65 573.641 412.948L573.727 412.379C573.856 411.524 573.743 410.342 573.872 409.488L631.967 418.248ZM431.596 535.992C433.575 517.068 439.775 474.023 446.302 430.737L452.27 391.152L506.663 399.354C506.406 401.062 505.906 402.443 505.692 403.867L505.606 404.437C504.919 408.993 507.224 411.089 510.357 411.561C516.052 412.42 520.613 407.282 521.171 403.58C525.56 362.884 528.352 344.373 528.394 344.088C529.082 339.532 529.624 337.866 535.636 334.695C537.232 333.77 541.191 332.62 541.578 330.057C542.437 324.361 526.026 313.44 523.747 313.097C521.754 312.796 519.261 313.877 516.183 316.908C514.786 318.444 513.319 318.515 512.18 318.343L474.304 312.632C473.82 311.976 473.38 311.036 472.853 310.665C470.107 307.63 452.841 296.58 450.278 296.194C449.994 296.151 449.666 296.393 449.537 297.247C449.494 297.532 449.365 298.386 449.521 299.283C450.125 310.733 447.887 331.366 447.329 335.068C445.74 345.605 444.307 357.04 442.59 368.431C433.873 426.241 422.573 491.526 413.724 534.754L413.596 535.608C412.694 541.589 415.483 544.339 419.185 544.898C423.172 545.499 430.522 543.112 431.553 536.277L431.596 535.992ZM565.797 520.986C567.058 510.691 570.014 481.429 572.118 467.475C573.75 456.653 575.104 455.401 579.15 453.681C580.659 453.326 585.758 452.347 586.231 449.215C586.961 444.373 571.689 433.624 569.126 433.238C567.702 433.023 565.338 433.249 562.173 436.849C561.104 438.145 558.939 438.983 557.515 438.768L510.526 431.683C505.233 426.225 493.019 420.306 491.595 420.091C491.026 420.005 490.698 420.247 490.612 420.816C490.526 421.386 490.725 421.998 490.639 422.568C491.329 433.448 489.037 450.578 488.522 453.996C486.546 467.096 481.093 503.263 477.694 516.148L477.522 517.287C476.878 521.559 478.855 523.896 481.703 524.325C485.405 524.883 490.477 522.153 491.25 517.027L492.495 508.768L552.299 517.786L551.698 521.773C550.882 527.184 553.102 529.848 555.95 530.278C559.937 530.879 564.809 527.536 565.754 521.271L565.797 520.986ZM632.799 410.8L574.703 402.041C576.05 391.176 577.639 380.639 578.97 371.811L636.781 380.528L632.799 410.8ZM558.038 481.662C556.535 491.629 554.989 501.881 553.373 510.666L493.569 501.649C494.943 492.536 496.247 481.956 497.664 472.558L558.038 481.662ZM512.901 361.849C511.312 372.385 509.681 383.207 508.065 391.992L453.387 383.748C455.019 372.926 456.849 362.717 458.508 353.647L512.901 361.849ZM560.386 446.774C561.81 446.989 562.277 449.68 562.234 449.965C561.816 456.601 560.528 465.144 559.111 474.542L498.738 465.439L501.142 449.491C502.887 439.851 502.544 442.13 508.996 439.899L510.549 439.259L560.386 446.774ZM638.317 345.226C641.165 345.656 641.45 345.699 637.897 373.124L580.087 364.407C581.289 356.433 582.39 351.065 582.69 349.071C584.349 340.001 584.349 340.001 590.474 338.012L638.317 345.226ZM514.438 326.547C518.14 327.105 517.367 332.231 514.018 354.444L459.625 346.243C463.103 323.175 464.172 321.88 468.502 320.203L469.727 319.805L514.438 326.547Z" fill="black"/>
<path d="M749.525 397.429C751.285 396.944 753.018 396.322 754.805 395.975C782.069 390.961 799.059 407.197 802.96 427.261C806.138 443.615 802.873 468.638 765.981 487.219C762.621 489.013 760.636 490.54 760.77 491.227C760.823 491.502 761.564 491.643 762.8 491.403C772.42 489.533 818.769 468.971 810.514 426.506C806.187 404.243 786.463 385.685 755.405 391.722C718.574 398.882 706.845 435.391 710.878 456.142C711.84 461.09 713.657 465.3 716.443 467.896C723.956 474.993 727.536 483.14 733.858 481.911C744.577 479.827 764.471 446.438 758.114 413.73C756.431 405.072 753.335 398.685 749.525 397.429ZM741.627 400.818C743.196 400.086 744.242 399.597 745.341 399.383C748.365 398.796 751.239 400.376 753.323 411.096C758.612 438.306 741.856 470.23 733.473 471.86C727.426 473.035 718.742 464.312 716.498 452.768C712.998 434.765 723.04 410.849 741.627 400.818Z" fill="black"/>
<path d="M963.989 373.38C962.665 370.268 954.424 359.51 944.891 359.151C933.379 358.717 927.047 373.789 924.251 390.615C909.485 404.829 899.504 425.888 897.52 445.087C897.177 449.397 896.19 451.701 894.211 451.627C892.592 451.566 881.45 446.102 882.074 429.554C882.237 425.237 883.126 420.767 884.022 416.118C885.613 407.351 887.283 401.29 887.5 395.534C887.893 385.101 881.747 380.907 878.149 380.771C875.451 380.67 871.772 382.692 871.725 383.952C871.691 384.851 873.476 385.278 875.054 386.419C877.698 387.959 878.333 395.008 878.048 402.563C877.885 406.88 877.356 411.363 876.847 415.307C876.372 418.351 876.264 421.229 876.155 424.107C874.792 460.261 901.603 465.775 902.143 465.796C903.402 465.843 907.206 465.266 907.308 462.568C907.362 461.129 906.517 459.656 905.845 458.37C904.321 455.791 904.443 452.553 904.715 445.358C905.372 427.91 912.319 410.88 923.247 398.143C922.945 401.374 922.636 404.784 922.507 408.202C921.938 423.311 923.914 456.89 945.271 468.503C940.083 477.133 933.309 484.803 924.977 490.794C919.798 494.381 917.379 496.452 917.351 497.171C917.345 497.351 917.525 497.358 917.704 497.364C919.503 497.432 937.969 490.203 951.652 471.265C954.323 472.086 957.007 472.548 959.885 472.656C984.168 473.572 1011.5 450.826 1012.62 421.147C1013.84 388.77 985.933 374.208 965.248 373.428L963.989 373.38ZM965.811 377.592C980.893 378.881 1004.62 389.683 1003.53 418.642C1002.63 442.565 983.414 464.897 961.11 464.056C959.491 463.995 957.879 463.754 956.447 463.52C965.518 447.47 969.281 428.879 969.899 412.511C970.441 398.121 968.571 385.622 965.811 377.592ZM929.987 391.372C938.186 384.116 947.383 379.059 957.517 377.82C960.151 384.403 961.682 396.35 961.153 410.38C960.556 426.208 957.152 444.813 949.334 461.09C926.35 449.596 926.254 413.927 926.62 404.214C926.756 400.617 927.072 397.026 927.56 393.622L929.987 391.372ZM955.501 373.961C945.713 375.573 936.716 380.097 928.911 386.468C929.131 385.395 934.601 364.527 943.775 364.873C947.372 365.008 951.214 368.215 955.501 373.961Z" fill="black"/>
<path d="M1113.19 309.922C1112.93 311.704 1111.25 313.282 1108 314.453C1103.77 316.031 1099.04 317.354 1094.96 319.135C1088.55 322.036 1081.83 327.076 1080.45 336.698C1080.32 337.589 1080.4 338.327 1080.27 339.218C1080.14 342.655 1079.97 345.175 1079.63 347.491C1079.35 349.451 1078.92 351.208 1078.41 353.499C1075.74 363.299 1071.82 376.739 1070.41 386.539C1067.28 408.456 1078.68 413.905 1080.82 414.211C1082.78 414.491 1085.12 413.372 1088.46 410.394C1098.34 401.078 1101.9 396.496 1111.17 391.457C1115.52 388.989 1120.15 388.378 1124.43 388.99C1136.01 390.646 1144.64 400.244 1143.06 411.291C1141.58 421.626 1129.29 441.506 1087.23 445.675C1081.15 446.26 1078.53 446.794 1078.48 447.151C1078.45 447.329 1078.99 447.405 1079.88 447.533C1109.46 451.762 1148.89 439.217 1152.71 412.489C1155.18 395.205 1137.59 384.689 1128.15 383.339C1121.73 382.422 1114.48 383.566 1108.78 386.569C1099.38 391.227 1093.78 396.063 1089.1 398.302C1085.99 399.676 1083.68 400.618 1081.89 400.363C1079.58 400.032 1075.25 398.504 1077.44 383.18C1078.38 376.587 1080.42 368.696 1083.12 361.263C1085.9 353.296 1087.55 349.35 1088.11 345.43C1088.44 343.114 1088.42 340.746 1088.14 337.615C1088.11 336.521 1088.14 335.07 1088.34 333.644C1090.28 320.102 1101.76 321.198 1106.39 321.86C1110.13 322.395 1114.18 323.338 1116.37 324.56C1118.05 325.527 1119.88 326.699 1121.84 326.979C1124.87 327.412 1128.41 324.281 1129 320.183C1130.63 308.779 1110.65 297.194 1109.75 297.067C1109.22 296.99 1108.99 297.321 1108.97 297.499C1108.86 298.212 1109.73 299.791 1109.86 300.172C1110.52 301.903 1113.27 305.569 1113.27 309.388L1113.19 309.922Z" fill="black"/>
<path d="M1268.97 485.933C1265.89 484.064 1256.43 477.323 1246.61 472.02C1216.68 455.855 1207.57 471.595 1206.37 473.812C1201.24 483.315 1203.9 501.118 1225.44 512.75C1239.69 520.447 1244.34 518.661 1245.71 516.127C1246.91 513.909 1245.64 510.567 1242.47 508.857C1241.84 508.515 1241.12 508.331 1240.24 508.062C1237.53 507.412 1232.26 505.797 1227.19 503.06C1210.4 493.994 1209.77 480.766 1212.34 476.014C1214.05 472.846 1223.67 464.129 1240.62 473.281C1251.86 479.353 1263.99 490.608 1264.75 494.498C1265.08 496.925 1265.52 498.388 1267.26 499.329C1270.58 501.125 1277.44 500.938 1281.71 493.019C1283.34 490.01 1284.26 486.415 1283.99 481.977C1283.47 473.101 1283.4 464.884 1283.82 456.924C1295.52 458.742 1306.71 458.853 1308.85 454.894C1309.7 453.31 1308.64 451.102 1305.95 449.648C1305.79 449.562 1302.03 446.303 1298.03 440.458C1295.95 437.494 1294.39 435.834 1293.75 435.492C1293.59 435.406 1293.44 435.32 1293.35 435.479C1293.18 435.796 1293.53 437.417 1294.82 439.955C1297.24 444.944 1297.08 447.516 1296.31 448.941C1295.63 450.209 1294.33 450.329 1294.33 450.329C1291.82 450.813 1288.29 450.541 1284.28 450.012C1284.59 442.612 1285.06 435.298 1285.63 427.423C1289.08 427.854 1299.83 429.159 1301.97 425.2C1302.4 424.408 1302.96 421.849 1300.9 420.737C1299.32 419.881 1295.54 419.682 1291.33 420.274C1289.8 420.467 1287.94 420.489 1286.02 420.268C1287.81 384.001 1286.67 376.636 1278.43 372.189C1277.17 371.505 1270.48 369.119 1268.94 371.97C1268.59 372.604 1268.5 373.164 1269.04 373.665C1270.54 374.678 1273.58 375.499 1276.2 384.28C1279.77 396.231 1281.01 407.949 1281.13 419.469C1277.68 419.038 1274.59 417.572 1273.16 416.802C1264.45 412.098 1260.07 402.779 1256.69 397.679C1256.23 397.02 1255.31 395.3 1254.52 394.872C1254.21 394.701 1253.8 394.688 1253.63 395.005C1253.38 395.48 1250.2 411.971 1270 422.662C1273.16 424.373 1275.55 425.253 1280.99 426.552C1280.75 434.196 1280.1 441.827 1279.39 449.214C1268.82 447.189 1261.48 444.864 1253.88 440.759C1245.33 436.14 1239.48 429.916 1235.63 419.244C1235.04 417.695 1234.5 416.792 1234.03 416.535C1233.55 416.279 1233.22 416.51 1232.88 417.143C1232.88 417.143 1226.22 434.41 1246.49 445.358C1260.43 452.885 1277 455.904 1278.68 456.198C1277.87 464.146 1277.14 471.935 1276.9 479.579C1276.75 481.749 1276.37 483.589 1275.69 484.856C1274.49 487.073 1272.45 487.815 1269.29 486.104L1268.97 485.933ZM1336.67 433.3C1338.73 434.412 1341.41 433.611 1342.69 431.235C1346.88 423.474 1335.83 414.025 1327.91 409.749C1326.64 409.064 1323.47 407.354 1323.13 407.987C1322.96 408.304 1324.04 409.707 1324.74 410.696C1327.97 415.308 1331.88 421.713 1333.66 429.017C1334.32 431.213 1335.4 432.616 1336.67 433.3ZM1315.45 432.068C1317.5 433.18 1320.27 432.22 1321.56 429.844C1325.4 422.717 1315.42 412.415 1306.71 407.711C1304.81 406.685 1302.98 405.903 1302.72 406.378C1302.55 406.694 1303.48 408.012 1304.17 409.001C1307.17 413.686 1310.99 420.249 1312.52 427.627C1312.94 429.895 1314.02 431.298 1315.45 432.068Z" fill="black"/>
</svg>
