<svg id="レイヤー_1" data-name="レイヤー 1" xmlns="http://www.w3.org/2000/svg" viewBox="0 0 2075 411"><defs><style>.cls-1{fill:#fff;}</style></defs><path class="cls-1" d="M95.37,78.91H43.09v43.57H0v52.28H43.09v43.08H95.37V174.76h43.09V122.48H95.37ZM322,0C243,0,178.65,64.39,178.65,143.29A143.28,143.28,0,0,0,322,286.59h7.26L250.78,411h71.65L438.14,226.56a143.43,143.43,0,0,0,26.63-83.27C465.25,64.39,401.35,0,322,0Zm0,226.07c-45.51,0-82.3-37.27-82.3-82.78S276.44,61,322,60.51c45.51,0,82.3,37.28,82.3,82.78C404.74,188.8,367.46,225.59,322,226.07Z"/><path class="cls-1" d="M776.55,247.37H762v-14c-4.36,8.22-13.56,16.45-30,16.45-25.17,0-41.15-19.36-41.15-42.6,0-25.17,17.91-42.6,40.67-42.6,16.46,0,26.63,9.2,29.53,15.49V138h15.49Zm-70.2-40.18c0,15,10.65,28.08,28.08,28.08A28.58,28.58,0,0,0,754.28,227,25.61,25.61,0,0,0,762,206.71c0-7.75-2.91-15-8.23-19.85A28.22,28.22,0,0,0,734,179.12C717.49,179.12,706.35,192.19,706.35,207.19Z"/><path class="cls-1" d="M804.15,212c1,16.46,15,24.69,27.11,24.69,10.65,0,18.88-5.32,23.24-13.55h16A45,45,0,0,1,854,243a41.84,41.84,0,0,1-22.75,6.77c-26.14,0-42.6-21.3-42.6-42.6,0-23.23,17.91-42.6,42.6-42.6a42.59,42.59,0,0,1,29.53,11.62c9.68,9.68,13.56,22.27,12.1,35.82Zm53.25-12.1c-1-10.65-11.13-22.75-26.62-22.27-15.5,0-25.66,11.14-26.63,22.27Z"/><path class="cls-1" d="M923.24,187.83c0-6.29-3.87-11.13-11.62-10.65-7.74,0-11.61,4.84-11.61,10.17.48,6.29,6.29,9.19,14.52,11.61,12.1,3.39,25.66,6.78,26.14,24.21.49,15.49-12.58,26.14-28.56,26.14-12.59,0-28.57-7.26-29.05-25.66h15c.48,9.69,8.23,13.07,14,13.07,7.26,0,13.07-5.32,13.07-12.1,0-7.74-6.29-10.65-20.33-15.49-11.14-3.39-19.85-8.71-20.34-20.82,0-15,12.59-24.2,27.11-24.2,11.14,0,25.66,5.32,26.63,23.24h-15Z"/><path class="cls-1" d="M953.74,138h15.5v16.46h-15.5Zm0,29h15.5v80.36h-15.5Z"/><path class="cls-1" d="M1067,238.18c0,14-3.39,23.23-9.68,30-7.26,8.71-19.85,14.52-33.89,14.52-22.75,0-35.83-13.07-39.7-26.62h17.91a26.25,26.25,0,0,0,8.72,9.2,24.81,24.81,0,0,0,14,4.35c13.55,0,27.11-9.68,27.11-28.08v-8.22c-4.84,9.19-14.52,16.45-29,16.45-24.21,0-41.63-18.39-41.63-42.11,0-25.18,18.39-42.6,41.63-42.6,13.56,0,24.69,7.26,29,16V167.5H1067Zm-70.2-31c0,15,10.65,28.08,27.6,28.08,8.23,0,15-2.9,19.85-8.23,4.84-4.84,7.74-11.62,7.74-19.85,0-6.29-1.93-13.55-6.29-18.88-4.36-5.81-11.13-9.68-21.3-9.68C1009.42,179.12,996.83,190.73,996.83,207.19Z"/><path class="cls-1" d="M1084.46,167H1099V179.6c3.87-8.23,13.07-15,27.11-15,25.66.49,32.43,18.88,32.43,35.34v47H1143V203.32c0-14.52-5.81-24.69-21.3-24.69-15,0-21.79,9.68-21.79,23.24v44.54h-15.49Z"/><path class="cls-1" d="M1175,138h15.5v16.46H1175Zm0,29h15.5v80.36H1175Z"/><path class="cls-1" d="M1210.82,167h14.52V179.6c3.88-8.23,13.08-15,27.12-15,25.66.49,32.43,18.88,32.43,35.34v47H1269.4V203.32c0-14.52-5.81-24.69-21.3-24.69-15,0-21.79,9.68-21.79,23.24v44.54h-15.49Z"/><path class="cls-1" d="M1382.69,238.18c0,14-3.39,23.23-9.68,30-7.27,8.71-19.85,14.52-33.89,14.52-22.76,0-35.83-13.07-39.7-26.62h17.91a26.22,26.22,0,0,0,8.71,9.2,24.83,24.83,0,0,0,14,4.35c13.56,0,27.12-9.68,27.12-28.08v-8.22c-4.85,9.19-14.53,16.45-29,16.45-24.21,0-41.64-18.39-41.64-42.11,0-25.18,18.4-42.6,41.64-42.6,13.55,0,24.69,7.26,29,16V167.5h15.49Zm-70.2-31c0,15,10.65,28.08,27.59,28.08,8.23,0,15-2.9,19.85-8.23,4.84-4.84,7.75-11.62,7.75-19.85,0-6.29-1.94-13.55-6.29-18.88-4.36-5.81-11.14-9.68-21.31-9.68A28.12,28.12,0,0,0,1312.49,207.19Z"/><path class="cls-1" d="M1446.11,167h14.52v14c5.81-9.68,16.46-16.46,30.5-16.46,27.6,0,40.67,23.24,40.67,43.09,0,22.75-16.46,42.11-40.67,42.11-16.46,0-26.62-9.19-30-15.49v42.12h-15.49V167Zm70.68,40.18c0-13.07-9.2-28.07-28.08-28.07-7.74,0-15,2.9-19.85,8.23a28.19,28.19,0,0,0-7.74,19.84c0,8.23,2.9,15,7.74,19.85a28.62,28.62,0,0,0,19.85,8.23C1505.17,235.27,1516.79,222.68,1516.79,207.19Z"/><path class="cls-1" d="M1546.81,138h15.49v109.4h-15.49Z"/><path class="cls-1" d="M1653.32,247.37h-14.53V234.79c-3.87,8.23-12.58,15-27.11,15-25.66,0-32.43-18.88-32.43-35.82V167h15.49v43.57c0,14.53,5.81,24.69,21.3,24.69,15,0,21.79-9.68,21.79-23.24V167h15.49Z"/><path class="cls-1" d="M1705.61,187.83c0-6.29-3.88-11.13-11.62-10.65-7.75,0-11.62,4.84-11.62,10.17.48,6.29,5.81,9.19,14.52,11.61,12.1,3.39,25.66,6.78,26.14,24.21.49,15.49-12.58,26.14-28.56,26.14-12.59,0-28.56-7.26-29-25.66h15c.48,9.69,8.23,13.07,14,13.07,7.26,0,13.07-5.32,13.07-12.1,0-7.74-6.29-10.65-20.33-15.49-11.14-3.39-19.85-8.71-20.34-20.82,0-15,12.59-24.2,27.12-24.2,11.13,0,25.66,5.32,26.62,23.24h-15Z"/><path class="cls-1" d="M1777.26,167h14.52V179.6c3.87-8.23,13.07-15,27.11-15,25.66.49,32.44,18.88,32.44,35.34v47h-15.49V203.32c0-14.52-5.81-24.69-21.3-24.69-15,0-21.79,9.68-21.79,23.24v44.54h-15.49Z"/><path class="cls-1" d="M1869.73,138h15.49v16.46h-15.49Zm0,29h15.49v80.36h-15.49Z"/><path class="cls-1" d="M1905.07,167h14.52V179.6c3.88-8.23,13.07-15,27.11-15,25.66.49,32.44,18.88,32.44,35.34v47h-15.49V203.32c0-14.52-5.81-24.69-21.3-24.69-15,0-21.79,9.68-21.79,23.24v44.54h-15.49Z"/><path class="cls-1" d="M2005.77,212c1,16.46,15,24.69,27.11,24.69,10.65,0,18.88-5.32,23.24-13.55h16c-3.88,8.71-9.2,15.49-16.47,19.85a41.81,41.81,0,0,1-22.75,6.77c-26.14,0-42.6-21.3-42.6-42.6,0-23.23,17.91-42.6,42.6-42.6a42.57,42.57,0,0,1,29.53,11.62A44.19,44.19,0,0,1,2074.52,212Zm53.74-12.1c-1-10.65-11.14-22.75-26.63-22.27-15.49,0-25.66,11.14-26.63,22.27Z"/></svg>