<svg id="レイヤー_1" data-name="レイヤー 1" xmlns="http://www.w3.org/2000/svg" viewBox="0 0 1385 146"><defs><style>.cls-1{fill:#fff;}</style></defs><path class="cls-1" d="M86.55,110.37H72v-14c-4.36,8.22-13.56,16.45-30,16.45C16.84,112.79.86,93.43.86,70.19c0-25.17,17.91-42.6,40.67-42.6,16.46,0,26.62,9.2,29.53,15.49V1H86.55ZM16.35,70.19c0,15,10.65,28.08,28.08,28.08A28.58,28.58,0,0,0,64.28,90,25.61,25.61,0,0,0,72,69.71c0-7.75-2.91-15-8.23-19.85A28.22,28.22,0,0,0,44,42.12C27.49,42.12,16.35,55.19,16.35,70.19Z"/><path class="cls-1" d="M114.15,75c1,16.45,15,24.68,27.11,24.68,10.65,0,18.88-5.32,23.24-13.55h16A45,45,0,0,1,164,106a41.81,41.81,0,0,1-22.75,6.77c-26.14,0-42.61-21.3-42.61-42.6,0-23.23,17.92-42.6,42.61-42.6a42.59,42.59,0,0,1,29.53,11.62c9.68,9.68,13.56,22.27,12.1,35.83ZM167.4,62.93c-1-10.65-11.13-22.75-26.63-22.27-15.49,0-25.65,11.14-26.62,22.27Z"/><path class="cls-1" d="M233.24,50.83c0-6.29-3.87-11.13-11.62-10.65C213.88,40.18,210,45,210,50.35c.48,6.29,6.29,9.19,14.52,11.61,12.1,3.39,25.66,6.78,26.14,24.21.49,15.49-12.58,26.14-28.56,26.14-12.59,0-28.57-7.26-29.05-25.66h15c.48,9.69,8.23,13.07,14,13.07,7.26,0,13.07-5.32,13.07-12.1,0-7.74-6.29-10.65-20.33-15.49-11.14-3.39-19.85-8.71-20.34-20.82,0-15,12.59-24.2,27.11-24.2,11.14,0,25.66,5.32,26.63,23.24h-15Z"/><path class="cls-1" d="M263.74,1h15.5V17.43h-15.5Zm0,29h15.5v80.36h-15.5Z"/><path class="cls-1" d="M377,101.18c0,14-3.39,23.23-9.68,30-7.26,8.71-19.85,14.52-33.89,14.52-22.75,0-35.83-13.07-39.7-26.62h17.91a26.25,26.25,0,0,0,8.72,9.2,24.79,24.79,0,0,0,14,4.35c13.55,0,27.11-9.68,27.11-28.08V96.34c-4.84,9.19-14.52,16.45-29.05,16.45-24.2,0-41.63-18.39-41.63-42.11,0-25.17,18.39-42.6,41.63-42.6,13.56,0,24.69,7.26,29.05,16V30.5H377Zm-70.2-31c0,15,10.65,28.08,27.6,28.08,8.23,0,15-2.9,19.85-8.23C359.12,85.2,362,78.42,362,70.19c0-6.29-1.93-13.55-6.29-18.88-4.36-5.8-11.13-9.68-21.3-9.68C319.42,42.12,306.83,53.73,306.83,70.19Z"/><path class="cls-1" d="M394.46,30H409V42.6c3.88-8.23,13.08-15,27.12-15,25.66.49,32.43,18.88,32.43,35.34v47H453V66.32c0-14.52-5.81-24.69-21.3-24.69-15,0-21.79,9.68-21.79,23.24v44.54H394.46Z"/><path class="cls-1" d="M485,1h15.5V17.43H485Zm0,29h15.5v80.36H485Z"/><path class="cls-1" d="M520.82,30h14.52V42.6c3.88-8.23,13.08-15,27.12-15,25.65.49,32.43,18.88,32.43,35.34v47H579.4V66.32c0-14.52-5.81-24.69-21.3-24.69-15,0-21.79,9.68-21.79,23.24v44.54H520.82Z"/><path class="cls-1" d="M692.69,101.18c0,14-3.39,23.23-9.68,30-7.27,8.71-19.85,14.52-33.89,14.52-22.76,0-35.83-13.07-39.7-26.62h17.91a26.22,26.22,0,0,0,8.71,9.2,24.83,24.83,0,0,0,14,4.35c13.56,0,27.12-9.68,27.12-28.08V96.34c-4.85,9.19-14.53,16.45-29.05,16.45-24.21,0-41.64-18.39-41.64-42.11,0-25.17,18.4-42.6,41.64-42.6,13.55,0,24.69,7.26,29.05,16V30.5h15.49Zm-70.2-31c0,15,10.65,28.08,27.59,28.08,8.23,0,15-2.9,19.85-8.23,4.85-4.84,7.75-11.62,7.75-19.85,0-6.29-1.94-13.55-6.29-18.88-4.36-5.8-11.14-9.68-21.31-9.68A28.12,28.12,0,0,0,622.49,70.19Z"/><path class="cls-1" d="M756.11,30h14.52v14c5.81-9.68,16.46-16.46,30.5-16.46,27.6,0,40.67,23.24,40.67,43.09,0,22.75-16.46,42.11-40.67,42.11-16.46,0-26.62-9.19-30-15.49v42.12h-15.5V30Zm70.68,40.18c0-13.07-9.2-28.07-28.08-28.07-7.74,0-15,2.9-19.85,8.23a28.19,28.19,0,0,0-7.74,19.84c0,8.23,2.9,15,7.74,19.85a28.62,28.62,0,0,0,19.85,8.23C815.17,98.27,826.79,85.69,826.79,70.19Z"/><path class="cls-1" d="M856.81,1H872.3v109.4H856.81Z"/><path class="cls-1" d="M963.32,110.37H948.79V97.79c-3.87,8.23-12.58,15-27.11,15-25.66,0-32.43-18.87-32.43-35.82V30h15.49V73.58c0,14.53,5.81,24.69,21.3,24.69,15,0,21.79-9.68,21.79-23.23V30h15.49Z"/><path class="cls-1" d="M1015.61,50.83c0-6.29-3.88-11.13-11.62-10.65-7.75,0-11.62,4.84-11.62,10.17.48,6.29,5.81,9.19,14.52,11.61,12.1,3.39,25.66,6.78,26.14,24.21.49,15.49-12.58,26.14-28.56,26.14-12.59,0-28.56-7.26-29.05-25.66h15c.48,9.69,8.23,13.07,14,13.07,7.26,0,13.07-5.32,13.07-12.1,0-7.74-6.29-10.65-20.33-15.49-11.14-3.39-19.85-8.71-20.33-20.82,0-15,12.58-24.2,27.11-24.2,11.13,0,25.66,5.32,26.62,23.24h-15Z"/><path class="cls-1" d="M1087.26,30h14.52V42.6c3.87-8.23,13.07-15,27.11-15,25.66.49,32.44,18.88,32.44,35.34v47h-15.49V66.32c0-14.52-5.81-24.69-21.3-24.69-15,0-21.79,9.68-21.79,23.24v44.54h-15.49Z"/><path class="cls-1" d="M1179.73,1h15.49V17.43h-15.49Zm0,29h15.49v80.36h-15.49Z"/><path class="cls-1" d="M1215.07,30h14.52V42.6c3.88-8.23,13.07-15,27.11-15,25.66.49,32.44,18.88,32.44,35.34v47h-15.49V66.32c0-14.52-5.81-24.69-21.3-24.69-15,0-21.79,9.68-21.79,23.24v44.54h-15.49Z"/><path class="cls-1" d="M1315.77,75c1,16.45,15,24.68,27.11,24.68,10.65,0,18.88-5.32,23.24-13.55h16c-3.88,8.71-9.2,15.49-16.47,19.85a41.81,41.81,0,0,1-22.75,6.77c-26.14,0-42.6-21.3-42.6-42.6,0-23.23,17.91-42.6,42.6-42.6a42.57,42.57,0,0,1,29.53,11.62A44.2,44.2,0,0,1,1384.52,75Zm53.74-12.11c-1-10.65-11.14-22.75-26.63-22.27-15.49,0-25.66,11.14-26.63,22.27Z"/></svg>