<svg id="レイヤー_1" data-name="レイヤー 1" xmlns="http://www.w3.org/2000/svg" viewBox="0 0 465 411"><defs><style>.cls-1{fill:#fff;}</style></defs><path class="cls-1" d="M95.37,78.91H43.09v43.57H0v52.28H43.09v43.08H95.37V174.76h43.09V122.48H95.37V78.91ZM322,0C243,0,178.65,64.39,178.65,143.29A143.29,143.29,0,0,0,322,286.59h7.26L250.78,411h71.65L438.14,226.56a143.43,143.43,0,0,0,26.63-83.27C465.25,64.39,401.35,0,322,0Zm0,226.07c-45.51,0-82.3-37.27-82.3-82.78S276.44,61,322,60.51c45.51,0,82.3,37.28,82.3,82.78C404.74,188.8,367.46,225.59,322,226.07Z"/></svg>