<?xml version="1.0" encoding="utf-8"?>
<!-- Generator: Adobe Illustrator 25.3.1, SVG Export Plug-In . SVG Version: 6.00 Build 0)  -->
<svg version="1.1" id="レイヤー_1" xmlns="http://www.w3.org/2000/svg" xmlns:xlink="http://www.w3.org/1999/xlink" x="0px"
	 y="0px" viewBox="0 0 400 400" style="enable-background:new 0 0 400 400;" xml:space="preserve">
<style type="text/css">
	.st0{fill-rule:evenodd;clip-rule:evenodd;fill:#FFFFFF;}
</style>
<desc>Created with Sketch.</desc>
<g id="white_x2F_logo_x5F_symbol">
	<path id="Shape" class="st0" d="M158.3,135.6V105c0-5.6,0.3-7.4,1.1-10.3c2.3-7.9,10-13.7,19.2-13.7c9.2,0,16.9,6,19.2,13.7
		c0.9,2.9,1.1,4.7,1.1,10.3v47.1c0,2.9,0,5.7-0.6,8.3c-1.6,7.1-8,13.6-15.2,15.1c-2.6,0.6-5.4,0.6-8.3,0.6h-47.3
		c-5.6,0-7.4-0.3-10.3-1.1c-7.7-2.3-13.8-10-13.8-19.1c0-9.1,6-16.9,13.8-19.1c2.9-0.9,4.7-1.1,10.3-1.1H158.3z M326.8,349.3H73.2
		V126.6c0-2.9,1-5.3,3-7.3L142,53.7c2-2,4.4-3,7.3-3h177.5V349.3z M355.6,0.5c-1.3-0.1-3-0.3-6.3-0.3H142.6c-2.3,0-4.6,0.1-6.2,0.3
		c-9.5,0.9-17.9,5.3-24.6,12L34.8,89.2c-6.7,6.7-11.2,15.1-12,24.6c-0.1,1.6-0.3,3.9-0.3,6.1v251.8c0,3.3,0.1,5,0.3,6.3
		c1.1,10.7,10.9,20.4,21.6,21.6c1.3,0.1,3,0.3,6.3,0.3h298.6c3.3,0,5-0.1,6.3-0.3c10.7-1.1,20.5-10.9,21.6-21.6
		c0.1-1.3,0.3-3,0.3-6.3V28.3c0-3.3-0.1-5-0.3-6.3C376.1,11.3,366.3,1.6,355.6,0.5z"/>
</g>
</svg>
