<?xml version="1.0" encoding="utf-8"?>
<!-- Generator: Adobe Illustrator 25.3.1, SVG Export Plug-In . SVG Version: 6.00 Build 0)  -->
<svg version="1.1" id="レイヤー_1" xmlns="http://www.w3.org/2000/svg" xmlns:xlink="http://www.w3.org/1999/xlink" x="0px"
	 y="0px" viewBox="0 0 400 400" style="enable-background:new 0 0 400 400;" xml:space="preserve">
<style type="text/css">
	.st0{fill-rule:evenodd;clip-rule:evenodd;fill:#BEB399;}
	.st1{fill-rule:evenodd;clip-rule:evenodd;fill:#FFFFFF;}
</style>
<desc>Created with Sketch.</desc>
<circle class="st0" cx="200" cy="200" r="200"/>
<g id="white_x2F_logo_x5F_symbol_2_">
	<path id="Shape_2_" class="st1" d="M170.5,158v-20.9c0-3.8,0.2-5.1,0.8-7c1.6-5.4,6.9-9.4,13.1-9.4c6.3,0,11.6,4.1,13.1,9.4
		c0.6,2,0.8,3.2,0.8,7v32.2c0,2,0,3.9-0.4,5.7c-1.1,4.9-5.5,9.3-10.4,10.3c-1.8,0.4-3.7,0.4-5.7,0.4h-32.3c-3.8,0-5.1-0.2-7.1-0.8
		c-5.3-1.6-9.4-6.8-9.4-13.1c0-6.2,4.1-11.5,9.4-13.1c2-0.6,3.2-0.8,7.1-0.8H170.5z M285.7,304H112.3V151.8c0-2,0.7-3.6,2.1-5
		l44.9-44.8c1.4-1.4,3-2,5-2h121.3V304z M305.3,65.6c-0.9-0.1-2.1-0.2-4.3-0.2H159.7c-1.6,0-3.1,0.1-4.2,0.2
		c-6.5,0.6-12.2,3.6-16.8,8.2l-52.6,52.4c-4.6,4.6-7.6,10.3-8.2,16.8c-0.1,1.1-0.2,2.6-0.2,4.2v172.1c0,2.2,0.1,3.4,0.2,4.3
		c0.8,7.3,7.4,14,14.8,14.7c0.9,0.1,2.1,0.2,4.3,0.2h204c2.3,0,3.4-0.1,4.3-0.2c7.3-0.8,14-7.4,14.8-14.7c0.1-0.9,0.2-2.1,0.2-4.3
		V84.7c0-2.2-0.1-3.4-0.2-4.3C319.3,73,312.7,66.4,305.3,65.6z"/>
</g>
</svg>
