<?xml version="1.0" encoding="utf-8"?>
<!-- Generator: Adobe Illustrator 25.3.1, SVG Export Plug-In . SVG Version: 6.00 Build 0)  -->
<svg version="1.1" id="Logo" xmlns="http://www.w3.org/2000/svg" xmlns:xlink="http://www.w3.org/1999/xlink" x="0px" y="0px"
	 viewBox="0 0 248 248" style="enable-background:new 0 0 248 248;" xml:space="preserve">
<style type="text/css">
	.st0{fill-rule:evenodd;clip-rule:evenodd;fill:#BEB399;}
	.st1{fill:#FFFFFF;}
</style>
<circle class="st0" cx="124" cy="124" r="124"/>
<g id="Logo_1_">
	<path id="white_background" class="st1" d="M196.9,88.6c0.1,1.6,0.1,3.2,0.1,4.9c0,49.7-37.8,107-107,107v0
		c-20.4,0-40.4-5.8-57.7-16.9c3,0.4,6,0.5,9,0.5c16.9,0,33.4-5.7,46.7-16.1c-16.1-0.3-30.2-10.8-35.1-26.1c5.6,1.1,11.4,0.9,17-0.6
		c-17.5-3.5-30.2-19-30.2-36.9c0-0.2,0-0.3,0-0.5c5.2,2.9,11.1,4.5,17.1,4.7c-16.5-11-21.6-33-11.6-50.2
		c19.1,23.5,47.3,37.8,77.5,39.3c-3-13.1,1.1-26.8,10.9-35.9c15.1-14.2,39-13.5,53.2,1.6c8.4-1.7,16.5-4.8,23.9-9.1
		c-2.8,8.7-8.7,16.1-16.5,20.8c7.5-0.9,14.7-2.9,21.6-5.9C210.6,76.7,204.3,83.3,196.9,88.6z"/>
</g>
</svg>
