<svg width="465" height="411" viewBox="0 0 465 411" fill="none" xmlns="http://www.w3.org/2000/svg">
<path d="M95.3745 78.9081H43.088V122.477H0V174.76H43.088V217.845H95.3745V174.76H138.462V122.477H95.3745V78.9081V78.9081ZM321.949 0C243.035 0 178.646 64.3852 178.646 143.293C178.646 222.685 243.035 286.587 321.949 286.587C324.37 286.587 326.791 286.587 329.211 286.587L250.782 411H322.433L438.142 226.558C454.602 203.322 464.769 174.76 464.769 143.293C465.253 64.3852 401.347 0 321.949 0ZM321.949 226.074C276.441 226.074 239.647 188.799 239.647 143.293C239.647 97.788 276.441 60.9965 321.949 60.5124C367.458 60.5124 404.252 97.788 404.252 143.293C404.736 188.799 367.458 225.59 321.949 226.074Z" fill="#040000"/>
</svg>
