<svg width="2075" height="411" viewBox="0 0 2075 411" fill="currentColor" xmlns="http://www.w3.org/2000/svg">
<path d="M95.3745 78.9081H43.088V122.477H0V174.76H43.088V217.845H95.3745V174.76H138.462V122.477H95.3745V78.9081ZM321.949 0C243.035 0 178.646 64.3852 178.646 143.293C178.646 222.686 243.035 286.587 321.949 286.587C324.37 286.587 326.791 286.587 329.211 286.587L250.782 411H322.434L438.142 226.558C454.602 203.322 464.769 174.76 464.769 143.293C465.253 64.3852 401.347 0 321.949 0ZM321.949 226.074C276.441 226.074 239.647 188.799 239.647 143.293C239.647 97.788 276.441 60.9965 321.949 60.5124C367.458 60.5124 404.252 97.788 404.252 143.293C404.736 188.799 367.458 225.59 321.949 226.074Z" fill="currentColor"/>
<path d="M776.552 247.375H762.028V233.336C757.67 241.565 748.472 249.795 732.011 249.795C706.836 249.795 690.86 230.431 690.86 207.194C690.86 182.021 708.773 164.594 731.527 164.594C747.988 164.594 758.155 173.792 761.059 180.085V166.046V137.968H776.552V247.375ZM706.352 207.194C706.352 222.201 717.003 235.272 734.432 235.272C742.178 235.272 749.44 231.883 754.281 227.042C759.607 221.717 762.512 214.94 762.028 206.71C762.028 198.965 759.123 191.703 753.797 186.862C748.956 182.021 741.694 179.117 733.948 179.117C717.487 179.117 706.352 192.187 706.352 207.194Z" fill="currentColor"/>
<path d="M804.147 212.035C805.116 228.495 819.156 236.724 831.259 236.724C841.91 236.724 850.14 231.399 854.497 223.17H870.474C866.601 231.883 860.791 238.661 854.013 243.018C847.235 247.375 839.489 249.795 831.259 249.795C805.116 249.795 788.655 228.495 788.655 207.194C788.655 183.958 806.568 164.594 831.259 164.594C842.878 164.594 853.045 168.951 860.791 176.212C870.474 185.894 874.347 198.481 872.894 212.035H804.147ZM857.402 199.933C856.434 189.283 846.267 177.18 830.775 177.664C815.282 177.664 805.116 188.799 804.147 199.933H857.402Z" fill="currentColor"/>
<path d="M923.244 187.83C923.244 181.537 919.371 176.696 911.625 177.18C903.879 177.18 900.006 182.021 900.006 187.346C900.49 193.64 906.3 196.544 914.53 198.965C926.633 202.353 940.189 205.742 940.673 223.17C941.157 238.661 928.086 249.311 912.109 249.311C899.522 249.311 883.545 242.049 883.061 223.654H898.069C898.554 233.336 906.3 236.724 912.109 236.724C919.371 236.724 925.181 231.399 925.181 224.622C925.181 216.876 918.887 213.972 904.847 209.131C893.712 205.742 884.998 200.417 884.514 188.314C884.514 173.307 897.101 164.109 911.625 164.109C922.76 164.109 937.284 169.435 938.253 187.346H923.244V187.83Z" fill="currentColor"/>
<path d="M953.745 137.968H969.237V154.428H953.745V137.968ZM953.745 167.014H969.237V247.375H953.745V167.014Z" fill="currentColor"/>
<path d="M1067.03 238.177C1067.03 252.216 1063.64 261.413 1057.35 268.191C1050.09 276.905 1037.5 282.714 1023.46 282.714C1000.71 282.714 987.634 269.643 983.761 256.088H1001.67C1003.61 259.477 1006.52 262.866 1010.39 265.286C1015.23 268.675 1020.56 269.643 1024.43 269.643C1037.98 269.643 1051.54 259.961 1051.54 241.565V233.336C1046.7 242.534 1037.02 249.795 1022.49 249.795C998.285 249.795 980.856 231.399 980.856 207.678C980.856 182.505 999.254 165.078 1022.49 165.078C1036.05 165.078 1047.18 172.339 1051.54 181.053V167.498H1067.03V238.177ZM996.833 207.194C996.833 222.201 1007.48 235.272 1024.43 235.272C1032.66 235.272 1039.44 232.368 1044.28 227.042C1049.12 222.201 1052.02 215.424 1052.02 207.194C1052.02 200.901 1050.09 193.64 1045.73 188.315C1041.37 182.505 1034.6 178.633 1024.43 178.633C1009.42 179.117 996.833 190.735 996.833 207.194Z" fill="currentColor"/>
<path d="M1084.46 167.014H1098.99V179.601C1102.86 171.371 1112.06 164.594 1126.1 164.594C1151.76 165.078 1158.53 183.473 1158.53 199.933V246.89H1143.04V203.322C1143.04 188.799 1137.23 178.633 1121.74 178.633C1106.73 178.633 1099.95 188.314 1099.95 201.869V246.406H1084.46V167.014Z" fill="currentColor"/>
<path d="M1174.99 137.968H1190.49V154.428H1174.99V137.968ZM1174.99 167.014H1190.49V247.375H1174.99V167.014Z" fill="currentColor"/>
<path d="M1210.82 167.014H1225.34V179.601C1229.22 171.371 1238.42 164.594 1252.46 164.594C1278.12 165.078 1284.89 183.473 1284.89 199.933V246.89H1269.4V203.322C1269.4 188.799 1263.59 178.633 1248.1 178.633C1233.09 178.633 1226.31 188.314 1226.31 201.869V246.406H1210.82V167.014Z" fill="currentColor"/>
<path d="M1382.69 238.177C1382.69 252.216 1379.3 261.413 1373.01 268.191C1365.74 276.905 1353.16 282.714 1339.12 282.714C1316.36 282.714 1303.29 269.643 1299.42 256.088H1317.33C1319.27 259.477 1322.17 262.866 1326.04 265.286C1330.89 268.675 1336.21 269.643 1340.08 269.643C1353.64 269.643 1367.2 259.961 1367.2 241.565V233.336C1362.35 242.534 1352.67 249.795 1338.15 249.795C1313.94 249.795 1296.51 231.399 1296.51 207.678C1296.51 182.505 1314.91 165.078 1338.15 165.078C1351.7 165.078 1362.84 172.339 1367.2 181.053V167.498H1382.69V238.177ZM1312.49 207.194C1312.49 222.201 1323.14 235.272 1340.08 235.272C1348.31 235.272 1355.09 232.368 1359.93 227.042C1364.77 222.201 1367.68 215.424 1367.68 207.194C1367.68 200.901 1365.74 193.64 1361.39 188.315C1357.03 182.505 1350.25 178.633 1340.08 178.633C1325.08 179.117 1312.49 190.735 1312.49 207.194Z" fill="currentColor"/>
<path d="M1446.11 167.014H1460.63V181.053C1466.44 171.371 1477.09 164.594 1491.13 164.594C1518.73 164.594 1531.8 187.83 1531.8 207.678C1531.8 230.431 1515.34 249.795 1491.13 249.795C1474.67 249.795 1464.51 240.597 1461.12 234.304V247.375V276.42H1445.63V167.014H1446.11ZM1516.79 207.194C1516.79 194.124 1507.59 179.117 1488.71 179.117C1480.97 179.117 1473.71 182.021 1468.86 187.346C1464.02 192.187 1461.12 199.449 1461.12 207.194C1461.12 215.424 1464.02 222.201 1468.86 227.042C1473.71 231.883 1480.97 235.272 1488.71 235.272C1505.17 235.272 1516.79 222.685 1516.79 207.194Z" fill="currentColor"/>
<path d="M1546.81 137.968H1562.3V247.375H1546.81V137.968Z" fill="currentColor"/>
<path d="M1653.32 247.375H1638.79V234.788C1634.92 243.018 1626.21 249.795 1611.68 249.795C1586.02 249.795 1579.25 230.915 1579.25 213.972V167.014H1594.74V210.583C1594.74 225.106 1600.55 235.272 1616.04 235.272C1631.05 235.272 1637.83 225.59 1637.83 212.035V167.014H1653.32V247.375Z" fill="currentColor"/>
<path d="M1705.61 187.83C1705.61 181.537 1701.73 176.696 1693.99 177.18C1686.24 177.18 1682.37 182.021 1682.37 187.346C1682.85 193.64 1688.18 196.544 1696.89 198.965C1708.99 202.353 1722.55 205.742 1723.03 223.17C1723.52 238.661 1710.45 249.311 1694.47 249.311C1681.88 249.311 1665.91 242.049 1665.42 223.654H1680.43C1680.91 233.336 1688.66 236.724 1694.47 236.724C1701.73 236.724 1707.54 231.399 1707.54 224.622C1707.54 216.876 1701.25 213.972 1687.21 209.131C1676.07 205.742 1667.36 200.417 1666.87 188.314C1666.87 173.307 1679.46 164.109 1693.99 164.109C1705.12 164.109 1719.65 169.435 1720.61 187.346H1705.61V187.83Z" fill="currentColor"/>
<path d="M1777.26 167.014H1791.78V179.601C1795.65 171.371 1804.85 164.594 1818.89 164.594C1844.55 165.078 1851.33 183.473 1851.33 199.933V246.89H1835.84V203.322C1835.84 188.799 1830.03 178.633 1814.54 178.633C1799.53 178.633 1792.75 188.314 1792.75 201.869V246.406H1777.26V167.014Z" fill="currentColor"/>
<path d="M1869.73 137.968H1885.22V154.428H1869.73V137.968ZM1869.73 167.014H1885.22V247.375H1869.73V167.014Z" fill="currentColor"/>
<path d="M1905.07 167.014H1919.59V179.601C1923.47 171.371 1932.66 164.594 1946.7 164.594C1972.36 165.078 1979.14 183.473 1979.14 199.933V246.89H1963.65V203.322C1963.65 188.799 1957.84 178.633 1942.35 178.633C1927.34 178.633 1920.56 188.314 1920.56 201.869V246.406H1905.07V167.014Z" fill="currentColor"/>
<path d="M2005.77 212.035C2006.74 228.495 2020.78 236.724 2032.88 236.724C2043.53 236.724 2051.76 231.399 2056.12 223.17H2072.1C2068.22 231.883 2062.9 238.661 2055.63 243.018C2048.86 247.375 2041.11 249.795 2032.88 249.795C2006.74 249.795 1990.28 228.495 1990.28 207.194C1990.28 183.958 2008.19 164.594 2032.88 164.594C2044.5 164.594 2054.67 168.951 2062.41 176.212C2071.61 185.894 2075.97 198.481 2074.52 212.035H2005.77ZM2059.51 199.933C2058.54 189.283 2048.37 177.18 2032.88 177.664C2017.39 177.664 2007.22 188.799 2006.25 199.933H2059.51Z" fill="currentColor"/>
</svg>
