<svg xmlns="http://www.w3.org/2000/svg" viewBox="0 0 326.42 344.54"><defs><style>.a{fill:#022e4b;}</style></defs><path class="a" d="M285.58,333.43c-34.82,0-45.56-9.61-48.87-15.33-2.63-4.56-2.47-9.85.44-14.9,5.39-9.34,21.08-18.76,44-18.76a90.84,90.84,0,0,1,25.19,3.69c-17.7-24.48-24.8-27.93-29.8-27.93-2.49,0-4.75,1-7.37,2.1-3.36,1.45-7.17,3.09-12.51,3.09h0c-5.71,0-12.17-1.9-19.75-5.83l.91-1.79a32.4,32.4,0,0,0,14.73,3.48c9.94,0,19.32-4.11,28.83-8.8-9-16.29-15.16-19.66-21.67-19.66a43,43,0,0,0-6.47.68,53.84,53.84,0,0,1-8.51.83,31.71,31.71,0,0,1-10.66-1.84l-2-.7,1.78-1.1c2.09-1.3,5.55-1.47,8.66-1.47,1.46,0,3,0,4.63.09s3.42.1,5.13.1c3.53,0,7.91-.19,11.23-1.55-.59-1.22-1.14-2.44-1.69-3.62-3.37-7.38-6.29-13.75-15.2-17.32l.52-1.91c7.48,1.15,12.48,6.57,16.9,11.36,4.13,4.48,7.69,8.35,12.43,8.35,3.38,0,7.19-2,11.66-6.1l.46-.42.58.23c.68.27,2.78,1.09,2.61,2.81-.34,3.43-12.68,6.3-20.92,7.83.87,1.62,1.68,3.17,2.46,4.64,5.7,10.84,9.15,17.39,14.92,17.39,4.19,0,10.07-3.39,19.06-11l.64-.54.27.22a2.19,2.19,0,0,1,1.19-.41,1.64,1.64,0,0,1,1.5,1.06l.11.23v.26c-.36,6.48-11.86,11.28-20.26,14.79-1.08.44-2.08.86-3,1.26,2.92,7.85,11.11,17.53,17.74,25.37,4.46,5.27,8.31,9.83,9.59,12.69l.77,1.72L314,296.4c-3.53-.62-7.24-1.4-11.16-2.23-9.93-2.1-21.18-4.47-31.56-4.47-11.46,0-20.24,2.89-26.82,8.86-4.07,7-5.08,12.75-3,17.11,4.33,9,21.25,11.53,34.85,13.54,4.71.7,9.15,1.36,12.67,2.22l-.22,2-3.17,0Zm25.07-106.71a1,1,0,0,1-.61-.2,2.27,2.27,0,0,1-1.89-2.09l-.07-.37.15-.25c-.12-1-3.38-3.77-5.33-5.45-3.9-3.34-5.9-5.16-5.32-6.74.44-1.19,2-1.19,2.48-1.19h.42l.85,0,.09.77a21.42,21.42,0,0,0,3.31,2.75c3.6,2.68,8.07,6,8.14,9.26a3.59,3.59,0,0,1-1.26,2.8,1,1,0,0,1-1,.66ZM323.56,220a1.88,1.88,0,0,1-1.39-.57,2.55,2.55,0,0,1-.59-2v-.08l0-.09c.37-1.67-2.74-3.5-5.49-5.12-2.93-1.72-5.7-3.36-6.07-5.57l-.07-.42.26-.35a2.64,2.64,0,0,1,2.23-1c4.48,0,13.61,6.78,14,12.57v.11A3,3,0,0,1,323.56,220Z"/><path class="a" d="M75.35,344.54a2.37,2.37,0,0,1-2.18-1.74,3.56,3.56,0,0,1,.76-3.69L74,339l.1-.06a69,69,0,0,0,14.41-11.83,89.55,89.55,0,0,0,11.08-14.82c1.6-2.52,3.24-5.26,5-8.39,1.36-2.53,3.13-5.15,4.84-7.7,3.94-5.85,10.15-13.49,8.91-18.22-3.5-13.45-14.94-22.69-24.95-33.07-3.44-3.56-7-7.25-10.19-11l1.26-1.51c15.22,8.82,24.73,22.89,34.73,39,.11.14.26.36.42.58a11.54,11.54,0,0,0,1.65,2c2.56-4.06,4.84-7.88,6.93-11.63,17.79-32,21.41-58.51,12.1-88.74-1.44-4.67-2.76-9.86-3.92-15.41-2.28-10.61-4.69-20.95-9-30.69-1.41-3.25-3-6.85-4.82-11a19.46,19.46,0,0,0-9.8-2.71c-9.44,0-18.23,7.1-21.4,17.27-4.76,15.8-11.46,29.77-19.9,41.5a100,100,0,0,1-7.25,9l-.17.19-.24.09C45.71,188,30.67,202.65,24.58,220a46.66,46.66,0,0,0,4.71,41.63c1.62,2.57,3.59,5.15,5.49,7.65,5,6.57,10.16,13.37,10.62,21.38l.1,1.67L44,291.59c-20.21-9.42-36.23-28.27-41.81-49.21-4.73-17.73-1.67-35.52,8.59-50.1.48-.69,1-1.39,1.41-2.06a81.85,81.85,0,0,1,6.07-8.29c18-17.16,24.6-32.68,20.29-47.52-4.71-16-17.44-27-29.75-37.65C6.9,95.14,5,93.52,3.22,91.9l1.14-1.62c9.82,5.3,41.79,24.81,41,53.39-.21,9.94-4.44,20.26-12.6,30.66a104.48,104.48,0,0,1-7.42,8.43C15.2,192.08,8.55,204.61,6.1,219c-1.83,10.6-2.53,37.27,28.76,60.58-1.73-4.09-3.87-8.09-5.94-12-4.66-8.72-9.48-17.75-10.07-28.13C17.68,214.33,34,190.33,59.47,179.69a114,114,0,0,0,7.13-9.46c8.88-13.08,15.77-27.78,22.63-43,5-10.61,15.45-17.74,25.93-17.74a24.13,24.13,0,0,1,4.24.38c-.61-1-1.22-2.08-1.83-3.13-8.36-14.37-17.84-30.66-34.75-35.22l-1.67-.45,1.22-1.23a7.92,7.92,0,0,1,5.71-2.49c4.71,0,9.4,4.06,12.82,7,9.72,8.7,15.49,20,21.06,30.83,1.13,2.21,2.3,4.49,3.49,6.71a56.57,56.57,0,0,0,6.67-.58c.91-.12,1.83-.24,2.76-.34a76.59,76.59,0,0,1,8.75-.52c16.87,0,30.72,6,39,16.92,2.36,3.18,4.92,7,5.64,12l0,.09v.1C187,167,196.44,192.23,208,220a27.2,27.2,0,0,1-.43,22.42c-4.39,9.55-14.09,17.73-25.33,21.36a33.26,33.26,0,0,0-7.31,5.72l-.78.74c-10.23,9.09-23,14.3-35.14,14.3a39.91,39.91,0,0,1-16.07-3.3q-2.46,4.46-4.88,9c-4.58,8.52-9.32,17.33-14.65,25.63-1.75,2.89-3.62,5.67-5.55,8.24a86.3,86.3,0,0,1-6.4,7.63,72.92,72.92,0,0,1-15.6,12.64l-.25.14Zm54.27-223.93c5.41,10.14,11,20.63,13.74,31.9.73,2.6,1.43,5.13,2.08,7.49l1.05,3.79c.65,2.35,1.25,4.45,1.76,6.25,1,3.38,1.59,5.62,1.75,6.49a103.22,103.22,0,0,1,2.85,14.94,101.74,101.74,0,0,1,.48,14.62,81.76,81.76,0,0,1-1.8,13.32c-2.76,12.79-8.66,25.84-18,39.92-2.23,4.06-11,15.23-8.71,16.47a42.13,42.13,0,0,0,19.16,4.55h0a31.38,31.38,0,0,0,16.11-4.92,81.14,81.14,0,0,0,11.68-9.1,47.24,47.24,0,0,1,13.05-8.59c13.58-5.53,24.7-19.27,19.84-32.71C203,220,201.19,214.89,199.48,210c-8-23-16.25-46.8-15.86-72.25a94.12,94.12,0,0,0-6-8.48c-7.26-9-18.52-13.55-33.48-13.55a84.66,84.66,0,0,0-16.22,1.66C128.47,118.45,129.05,119.53,129.62,120.61Z"/><path class="a" d="M247,178.48c-10,0-21.51-5.76-30.69-15.42a3.27,3.27,0,0,1-.5-3.41l0-.07.05-.08c0-.05,1-1.45,2-1.45h.41l.3.3c6.37,6.37,17.81,13.81,29.1,13.81a20.22,20.22,0,0,0,7.38-1.31,19.08,19.08,0,0,0,9.72-8.81l.08-.14.12-.11c1.33-1.2,2.77-2.44,4.26-3.74,12.27-10.63,27.54-23.86,16.77-38.94-6.53-9.22-16.49-13.9-29.6-13.9-9.88,0-21.53,2.81-32.78,7.91l-1.19-1.54a16.52,16.52,0,0,0,2.68-5.07c1-3.5,2.07-7.19,3.07-10.75,8.12-28.88,16.94-58.26,45.67-71.63,5.49-2.49,14.85-4.71,19.49-4.12,4.13.52,10.61,2.4,14.11,7.5,2.32-3.55,2.93-8,3.53-12.23.2-1.38.39-2.79.65-4.14.16-.6.25-1.23.36-1.9.38-2.45.9-5.81,4.33-8.18L317.92,0,318,1.86a22.74,22.74,0,0,0,.61,3.94,19.07,19.07,0,0,1,.64,4.73A26.78,26.78,0,0,1,305.4,34.29l-1.13.61L304,33.65c-.93-3.72-1.88-6-4.49-8.15s-6.55-4.6-10.58-4.6c-10.73,0-21.07,5.51-28.61,12.91-10.34,10.14-18,33.06-23.1,51.68-1.41,5.11-2.87,10.39-4.39,15.3a19.15,19.15,0,0,1-2,3.73c-.14.23-.29.45-.43.67a62.22,62.22,0,0,1,26.22-5.93,52.89,52.89,0,0,1,29.3,8.63c6.12,4.28,9.08,11.24,8.36,19.59-1.32,16.16-13.7,27.91-23.69,37.36a29.4,29.4,0,0,1-12,10.94A25.68,25.68,0,0,1,247,178.48Z"/></svg>